<svg id="ps4-target" width="689" height="464" viewBox="0 0 689 464" xmlns="http://www.w3.org/2000/svg">
  <rect fill-opacity="0" x="0" y="0" width="689" height="464"/>

  <g fill="none" stroke="#3272d9" stroke-width="3" stroke-linecap="round" stroke-linejoin="round">
    <!--outer-->
    <path d="M434.1 64.2h38.1s1.8.4 6.7-4.9c4.9-5.3 57.2-8.4 67.9 2.4 10.6 10.9 26.6 33.5 26.6 33.5s9.3 16.4 18.2 45.5c8.9 29.1 27.5 116.5 27.5 116.5s8 46.1 7.1 76.8c-.9 30.7-4.4 35.9-4.4 35.9s-1.3 20.9-28.4 38.6c-27.1 17.7-52.8 0-52.8 0s-21.3-17.3-33.7-48.8c0 0-10.6-22.6-18.6-48.4l-7.1-23.1s-3.7-13-12.9-15.1c-5.8-1.3-24 24.8-71-2.7H291.6c-47 27.5-65.2 1.4-71 2.7-9.2 2.1-12.9 15.1-12.9 15.1l-7.1 23.1c-8 25.8-18.6 48.4-18.6 48.4-12.4 31.5-33.7 48.8-33.7 48.8s-25.7 17.7-52.8 0c-27.1-17.7-28.4-38.6-28.4-38.6s-3.5-5.3-4.4-35.9c-.9-30.7 7.1-76.8 7.1-76.8s18.6-87.4 27.5-116.5c8.9-29.1 18.2-45.5 18.2-45.5s15.9-22.7 26.6-33.5c10.7-10.8 63-7.7 67.9-2.4 4.9 5.3 6.7 4.9 6.7 4.9h38.1"/>
    <!--touchpad-->
    <path d="M260.3 63.2h171.8c2.4.5 3.7 3.2 3.7 3.2s2.4.7 2.3 4v75.9s1.8 9.3-9.3 14.4H260.3c-11.1-5.1-9.3-14.4-9.3-14.4V70.4c-.1-3.3 2.3-4 2.3-4s1.3-2.7 3.7-3.2z"/>
    <!--trigger top left-->
    <path d="M140.9 63.3v-4.8s26.2-20.4 66.6-4v3.4"/>
    <!--trigger top right-->
    <path d="M481.5 57.9v-3.4c40.4-16.4 66.6 4 66.6 4v4.8"/>
    <!--detail bottom right-->
    <path d="M626.2 328.3c-44.3 79.8-111.4 48.2-111.4 48.2"/>
    <!--detail bottom left-->
    <path d="M173.7 377.8s-67.1 31.6-111.4-48.2"/>
    <!--share button-->
    <path d="M239.3 92c0 4.8-3.9 8.7-8.7 8.7h0a8.7 8.7 0 01-8.7-8.7V79.1c0-4.8 3.9-8.7 8.7-8.7h0c4.8 0 8.7 3.9 8.7 8.7V92z"/>
    <!--options button-->
    <path d="M467.3 92c0 4.8-3.9 8.7-8.7 8.7h0a8.7 8.7 0 01-8.7-8.7V79.1c0-4.8 3.9-8.7 8.7-8.7h0c4.8 0 8.7 3.9 8.7 8.7V92z"/>
    <!--speaker-->
    <path d="M326 173.1a2 2 0 01-2 2.1 2 2 0 01-2-2.1 2 2 0 012-2.1c1.1 0 2 1 2 2.1z"/>
    <path d="M336.2 173.1a2 2 0 01-2 2.1 2 2 0 01-2-2.1 2 2 0 012-2.1c1.1 0 2 1 2 2.1z"/>
    <path d="M346.1 173.1a2 2 0 01-2 2.1 2 2 0 01-2-2.1 2 2 0 012-2.1c1.1 0 2 1 2 2.1z"/>
    <path d="M356.7 173.1a2 2 0 01-2 2.1 2 2 0 01-2-2.1 2 2 0 012-2.1c1.1 0 2 1 2 2.1z"/>
    <path d="M366.4 173.1a2 2 0 01-2 2.1 2 2 0 01-2-2.1 2 2 0 012-2.1c1.1 0 2 1 2 2.1z"/>
    <path d="M330.7 180.4a2 2 0 01-2 2.1 2 2 0 01-2-2.1 2 2 0 012-2.1c1.1 0 2 1 2 2.1z"/>
    <path d="M340.6 180.4a2 2 0 01-2 2.1 2 2 0 01-2-2.1 2 2 0 012-2.1c1.1 0 2 1 2 2.1z"/>
    <path d="M351.3 180.4a2 2 0 01-2 2.1 2 2 0 01-2-2.1 2 2 0 012-2.1c1.1 0 2 1 2 2.1z"/>
    <path d="M361.7 180.4a2 2 0 01-2 2.1 2 2 0 01-2-2.1 2 2 0 012-2.1c1.1 0 2 1 2 2.1z"/>
    <path d="M335.4 188.2a2 2 0 01-2 2.1 2 2 0 01-2-2.1 2 2 0 012-2.1c1.1 0 2 1 2 2.1z"/>
    <path d="M346.1 188.2a2 2 0 01-2 2.1 2 2 0 01-2-2.1 2 2 0 012-2.1c1.1 0 2 1 2 2.1z"/>
    <path d="M356.7 188.2a2 2 0 01-2 2.1 2 2 0 01-2-2.1 2 2 0 012-2.1c1.1 0 2 1 2 2.1z"/>
    <!--ps button-->
    <path d="M358.6 220.3a14.5 14.5 0 11-29 0 14.5 14.5 0 0129 0z"/>
    <!--detail middle-->
    <path d="M322.2 263.3h25.2"/>
    <path d="M369.3 263.3c0 1.4-3 2.6-6.5 2.6-3.6 0-6.5-1.2-6.5-2.6 0-1.4 3-2.6 6.5-2.6 3.6 0 6.5 1.2 6.5 2.6z"/>
    <!--stick left-->
    <path d="M303.8 213.5a48 48 0 01-25 41.7 51.5 51.5 0 01-49.8 0 47.8 47.8 0 01-25-41.7 48 48 0 0125-41.7 51.5 51.5 0 0149.9 0 47.8 47.8 0 0124.9 41.7z"/>
    <path d="M285.8 207.1a32.2 32.2 0 11-64.4 0 32.2 32.2 0 0164.4 0z"/>
    <path d="M274.8 205.6a21.6 21.6 0 11-43.2 0 21.6 21.6 0 0143.2 0z"/>
    <!--stick right-->
    <path d="M485 213.5a48 48 0 01-25 41.7 51.5 51.5 0 01-49.8 0 47.8 47.8 0 01-25-41.7 49 49 0 0149.9-48.1 49 49 0 0149.9 48.1z"/>
    <path d="M467.6 207.1a32.2 32.2 0 11-64.4 0 32.2 32.2 0 0164.4 0z"/>
    <path d="M457.4 205.6a21.6 21.6 0 11-43.2 0 21.6 21.6 0 0143.2 0z"/>
    <!--d-pad container-->
    <path d="M208.6 193.4a66.8 66.8 0 01-38.9 12.4 65.6 65.6 0 01-66.1-65c0-35.9 29.6-65 66.1-65a65.6 65.6 0 0166.1 65c0 11.7-3.1 22.6-8.6 32.1"/>
    <!--d-pad buttons-->
    <path d="M175.4 138.1l11.9-9.2a9 9 0 015.8-2.2h12.3s5.9-.6 6.8 7v13.4c-.9 7.6-6.8 7-6.8 7h-12.3c-3.5 0-5.8-2.2-5.8-2.2l-11.9-9.2s-1.7-2.6 0-4.6z"/>
    <path d="M169.7 147.4l9.2 11.9a9 9 0 002.2 5.8v12.3s.6 5.9-7 6.8h-13.4c-7.6-.9-7-6.8-7-6.8v-12.3a9 9 0 012.2-5.8l9.2-11.9c.1 0 2.7-1.7 4.6 0z"/>
    <path d="M160.1 142.7l-11.9 9.2s-2.3 2.2-5.8 2.2h-12.3s-5.9.6-6.8-7v-13.4c.9-7.6 6.8-7 6.8-7h12.3a9 9 0 015.8 2.2l11.9 9.2s1.7 2.6 0 4.6z"/>
    <path d="M165.2 133.5l-9.2-11.9s-2.2-2.3-2.2-5.8v-12.3s-.6-5.9 7-6.8h13.4c7.6.9 7 6.8 7 6.8v12.3c0 3.6-2.2 5.8-2.2 5.8l-9.2 11.9c-.1 0-2.6 1.7-4.6 0z"/>
    <!--d-pad arrows-->
    <path d="M227.9 140.7l-7.9 8.5v-17z"/>
    <path d="M176.9 191.1l-8.5 7.8-8.5-7.8z"/>
    <path d="M116.7 149.3l-7.8-8.5 7.8-8.5z"/>
    <path d="M176.8 90.4h-16.9l8.5-7.8z"/>
    <!--button container-->
    <path d="M461.7 172.9a63.7 63.7 0 01-8.6-32.1c0-35.9 29.6-65 66.1-65a65.6 65.6 0 0166.1 65c0 35.9-29.6 65-66.1 65-14.5 0-28-4.6-38.9-12.4"/>
    <!--button shapes-->
    <path d="M579.7 137.7a17.2 18.4 90 11-36.8 0 17.2 18.4 90 1136.8 0z"/>
    <path d="M539.4 177.9a17.2 18.4 90 11-36.8 0 17.2 18.4 90 1136.8 0z"/>
    <path d="M497.1 138.7a17.2 18.4 90 11-36.8 0 17.2 18.4 90 1136.8 0z"/>
    <path d="M537.2 100a17.2 18.4 90 11-36.8 0 17.2 18.4 90 1136.8 0z"/>
    <!--circle button-->
    <path d="M573.4 137.1a12 12 0 01-11.8 12.2 12 12 0 01-11.8-12.2 12 12 0 0111.8-12.2 12 12 0 0111.8 12.2z"/>
    <!--x button-->
    <path d="M510.8 169.4l19.5 17.7"/>
    <path d="M530.3 168.1l-18.2 19"/>
    <!--square button-->
    <path d="M488.6 147.1h-19.5v-18.2h19.5z"/>
    <!--triangle button-->
    <path d="M530.3 107h-21.7l10.2-19.3z"/>
  </g>
</svg>
