<svg width="600" height="360" fill="none" xmlns="http://www.w3.org/2000/svg"><path d="M196.8 51.2h217.6V64H196.8V51.2zM184 64h12.8v12.8H184V64z" fill="#000"/><path d="M196.8 64h217.6v12.8h12.8v76.8h-12.8v-51.2h-12.8V89.6h-12.8V76.8H222.4v12.8h-12.8v12.8h-12.8v128h12.8v12.8h12.8V256h102.4v12.8h-128V256H184V76.8h12.8V64z" fill="#FC9"/><path d="M414.4 64h12.8v12.8h-12.8V64zM171.2 76.8H184V256h12.8v12.8h-38.4V256h12.8v-25.6h-12.8v-12.8h-25.6v-12.8H120V192h-12.8v-12.8H94.4v-38.4h51.2v12.8h12.8v12.8h12.8V76.8z" fill="#000"/><path d="M222.4 76.8h166.4v12.8h12.8v12.8h12.8v51.2H376v-12.8h-12.8V128h-12.8v-12.8h-25.6V128H312v51.2h-25.6V192h12.8v51.2H312V256h-89.6v-12.8h-12.8v-12.8h-12.8v-128h12.8V89.6h12.8V76.8z" fill="#F9F"/><path d="M427.2 76.8H440V128h12.8v12.8H440v12.8h-12.8V76.8z" fill="#000"/><path d="M286.4 89.6h12.8v12.8h-12.8V89.6zM324.8 89.6h12.8v12.8h-12.8V89.6zM222.4 102.4h12.8v12.8h-12.8v-12.8z" fill="#F39"/><path d="M324.8 115.2h25.6V128h-25.6v-12.8z" fill="#000"/><path d="M376 115.2h12.8V128H376v-12.8z" fill="#F39"/><path d="M452.8 115.2h25.6V128h-25.6v-12.8zM312 128h12.8v51.2H312V128z" fill="#000"/><path d="M324.8 128h25.6v12.8h12.8v12.8H376v12.8h51.2v-12.8H440v-12.8h12.8V128h25.6v51.2h12.8v38.4h-25.6V192H440v25.6h25.6v25.6h12.8V256h-12.8v12.8h-128V256h-12.8v-12.8H312v-64h12.8V128z" fill="#999"/><path d="M350.4 128h12.8v12.8h-12.8V128zM478.4 128h12.8v51.2h-12.8V128z" fill="#000"/><path d="M273.6 140.8h12.8v12.8h-12.8v-12.8z" fill="#F39"/><path d="M363.2 140.8H376v12.8h-12.8v-12.8z" fill="#000"/><path d="M107.2 153.6h25.6v12.8h12.8v12.8h12.8V192h12.8v12.8h-25.6V192h-12.8v-12.8H120v-12.8h-12.8v-12.8z" fill="#999"/><path d="M376 153.6h51.2v12.8H376v-12.8z" fill="#000"/><path d="M235.2 166.4H248v12.8h-12.8v-12.8zM286.4 179.2h12.8V192h-12.8v-12.8z" fill="#F39"/><path d="M299.2 179.2H312v64h-12.8v-64zM491.2 179.2H504v64h-12.8v-64z" fill="#000"/><path d="M209.6 192h12.8v12.8h-12.8V192z" fill="#F39"/><path d="M350.4 192h12.8v12.8h-12.8V192z" fill="#fff"/><path d="M363.2 192H376v25.6h-25.6v-12.8h12.8V192z" fill="#000"/><path d="M440 192h12.8v12.8H440V192z" fill="#fff"/><path d="M452.8 192h12.8v25.6H440v-12.8h12.8V192zM414.4 204.8h12.8v12.8h-12.8v-12.8z" fill="#000"/><path d="M260.8 217.6h12.8v12.8h-12.8v-12.8z" fill="#F39"/><path d="M324.8 217.6h25.6v25.6h-25.6v-25.6zM465.6 217.6h25.6v25.6h-25.6v-25.6z" fill="#F99"/><path d="M222.4 230.4h12.8v12.8h-12.8v-12.8z" fill="#F39"/><path d="M363.2 230.4H376v12.8h25.6v-12.8h12.8v12.8H440v-12.8h12.8V256h-89.6v-25.6zM312 243.2h12.8V256H312v-12.8zM478.4 243.2h12.8V256h-12.8v-12.8zM324.8 256h12.8v12.8h128v12.8h-12.8v12.8H440v-12.8h-25.6v12.8h-12.8v-12.8h-12.8v25.6h-38.4v-12.8h-12.8v-12.8h-64v12.8h-12.8v-12.8h-25.6v12.8h25.6v12.8h-38.4v-25.6h-12.8v12.8h-12.8v12.8h-51.2v-38.4h12.8v25.6H184v-12.8h12.8v-12.8h128V256zM465.6 256h12.8v12.8h-12.8V256z" fill="#000"/><path d="M158.4 268.8h38.4v12.8H184v12.8h-25.6v-25.6zM235.2 281.6h25.6v12.8h-25.6v-12.8zM350.4 281.6H376v12.8h-25.6v-12.8zM414.4 281.6H440v12.8h-25.6v-12.8z" fill="#999"/><path d="M414.4 294.4H440v12.8h-25.6v-12.8z" fill="#000"/></svg>