<svg id="xbone-target" width="689" height="464" viewBox="0 0 689 464" xmlns="http://www.w3.org/2000/svg">
  <rect fill-opacity="0" x="0" y="0" width="689" height="464"/>

  <g fill="none" stroke="#2a854e" stroke-width="3" stroke-linecap="round" stroke-linejoin="round">
    <!--outer-->
    <path d="M342.4 128h41.8s9.3-.2 14.9-7.8c2.2-3 42.3-46.2 42.3-46.2s9.4-8.6 24.3-4.7c14.8 3.9 45.4 7.6 79.9 28.9 0 0 7.9 6.9 9 10.7 0 0 138.4 288 6.3 307.6-9.7 1.4-41.9-36.1-63.5-58-21.5-21.9-27.4-24.3-27.4-24.3s-15.3-12.5-29.4-12.1c-14.1.4-86.2 0-86.2 0h-22.2s-72.1.4-86.2 0c-14.1-.4-29.4 12.1-29.4 12.1s-5.8 2.4-27.4 24.3c-21.6 21.9-53.8 59.4-63.5 58-132-19.6 6.3-307.6 6.3-307.6 1.1-3.8 9-10.7 9-10.7 34.4-21.3 65-25 79.9-28.9 14.9-3.9 24.3 4.7 24.3 4.7s40.1 43.1 42.3 46.2a20.6 20.6 0 0014.9 7.8h40z"/>
    <!--detail top-->
    <path d="M145.7 95.2s5.7-8.7 8.8-18.9c.5-1.8 59.8-35 88.7-28.9A76 76 0 01265.9 59s4.6 2.6 9.7 1.6H411c5.1 1 9.7-1.6 9.7-1.6s12.9-9.5 22.7-11.6c28.9-6.2 88.1 27.1 88.7 28.9a86 86 0 008.8 18.9"/>
    <!--trigger top left-->
    <path d="M270.3 60.7c1.2 1.3 0 4.1 0 4.1L258.2 87"/>
    <!--trigger top right-->
    <path d="M416.3 60.7c-1.2 1.3 0 4.1 0 4.1L428.4 87"/>
    <!--view button-->
    <path d="M314.2 158.3a11.2 11.2 0 11-22.4 0 11.2 11.2 0 0122.4 0z"/>
    <!--menu button-->
    <path d="M394.8 158.3a11.2 11.2 0 11-22.4 0 11.2 11.2 0 0122.4 0z"/>
    <!--stick left-->
    <path d="M245.1 158a40.5 40.5 0 11-81 0 40.5 40.5 0 0181 0z"/>
    <path d="M234 158.1a30.5 30.5 0 11-61 0 30.5 30.5 0 0161 0z"/>
    <path d="M225 157.7a21.4 21.4 0 11-42.8 0 21.4 21.4 0 0142.8 0z"/>
    <!--d-pad container-->
    <path d="M317.3 247.6a44.5 44.5 0 11-89 0 44.5 44.5 0 0189 0z"/>
    <!--d-pad cross-->
    <path d="M306.9 232.4s12.6 13.3 0 27.9H286v21.8c-14.1 8.6-27.4-.7-27.4-.7v-20.6h-20.4s-12.6-13.3 0-27.9h20.9v-21.8c14.1-8.6 27.4.7 27.4.7v20.6z"/>
    <!--stick right-->
    <path d="M456.3 242.3a40.5 40.5 0 11-81 0 40.5 40.5 0 0181 0z"/>
    <path d="M445.3 242.3a30.5 30.5 0 11-61 0 30.5 30.5 0 0161 0z"/>
    <path d="M436.2 241.9a21.4 21.4 0 11-42.8 0 21.4 21.4 0 0142.8 0z"/>
    <!--button shapes-->
    <path d="M541.5 159.1a18.2 18.2 0 11-36.4 0 18.2 18.2 0 0136.4 0z"/>
    <path d="M502.7 195.6a18.2 18.2 0 11-36.4 0 18.2 18.2 0 0136.4 0z"/>
    <path d="M464.9 159.1a18.2 18.2 0 11-36.4 0 18.2 18.2 0 0136.4 0z"/>
    <path d="M502.7 121.9a18.2 18.2 0 11-36.4 0 18.2 18.2 0 0136.4 0z"/>
    <!--b button-->
    <path d="M517.1 168.3v-19.2s5.9-.3 7.8 0c2.2.4 6.1 4.6-1.6 8.8"/>
    <path d="M517 157.9h6.3m0 0c9.7 4.2 4.6 9.9 2 10.4-2 .5-8.2 0-8.2 0"/>
    <!--a button-->
    <path d="M475.8 204.6l3.1-7 4.5-12.3h1.7l4.7 12.2 2.9 7.1"/>
    <path d="M478.9 198.1h10.8"/>
    <!--x button-->
    <path d="M439.9 147.7l14 21.4"/>
    <path d="M453.9 147.7l-14.3 21.4"/>
    <!--y button-->
    <path d="M477.5 111.5l7.8 11.2 7.4-11.2"/>
    <path d="M485.1 122.7v11.5"/>
  </g>
</svg>
