<svg viewBox="0 0 764 236" xmlns="http://www.w3.org/2000/svg">
  <g class="graph" transform="translate(4 232)">
    <g class="node">
      <g><path d="M160.31161482710553 -227.6964516108649 M163.36476395566 -228.97675039816895 C112.38068475826059 -229.21444383626024, 66.24699546371237 -227.16158449888917, -0.044538472960432784 -229.87613406520467 M162.43021290365624 -227.6468939195799 C111.98281191107972 -228.9302164530346, 63.78922007790572 -228.8933446688764, -0.2897418968826537 -228.70757010709212 M-1.0722471767589559 -228.7334368051289 C-1.208232161019287 -212.9613009864333, 0.7145414421353462 -195.9909542227035, -1.953645703044498 -162.09512267003691 M0.5340547048362301 -228.2628088503423 C-0.7273835605445 -212.59911897882245, 0.6324441042798401 -196.8171740903503, 0.6981699110733128 -163.7320316754661 M0.9046330673176524 -163.96768959496362 C44.90039393624336 -166.27317736953702, 92.62337342033692 -167.0549378950523, 160.44676513429295 -165.89063260550722 M0.8974790177442658 -163.21411306003358 C63.62736182463224 -164.94470031011878, 125.84769012899265 -164.19770432464878, 162.7417351793045 -164.60001533559577 M163.5142521126473 -165.76508212611878 C162.27312871921185 -177.26863934464922, 160.8808428834423 -190.74103316388525, 162.80207879354816 -229.2035611525192 M161.59748895172592 -163.97657738661894 C162.72445276731574 -179.0943492121088, 162.7970397373146 -192.86736515901947, 161.82198536071448 -228.54696774917147 M162 -228 C162 -228, 162 -228, 162 -228 M162 -228 C162 -228, 162 -228, 162 -228" stroke="currentColor" stroke-width="1" fill="none"/></g>
      <text x="44.428" y="-206.8" font-family="xkcd Script" font-size="14" fill="currentColor">White noise</text>
      <text x="14.862" y="-178.8" font-family="xkcd Script" font-style="italic" font-size="14" fill="currentColor">ScriptProcessorNode</text>
    </g>
    <g class="node">
      <g><path d="M361.4427022952796 -226.5681788086693 M361.0227689987524 -228.70894513939757 C310.54480721996066 -225.95302487822633, 261.050557792379 -228.13785271286733, 199.17278662817523 -226.31999442633625 M359.2622192683869 -227.0381433758678 C305.9757236932762 -228.19220223813767, 253.7846950535688 -228.40992139042933, 198.19319538489157 -228.7329543461759 M199.13871219665208 -226.67207889112223 C199.2902262890372 -207.90095139038988, 198.99893826564522 -188.32471431013622, 198.7119970802082 -162.6394309578421 M198.85852706185443 -227.94954579923433 C198.51754750225257 -212.89962144544748, 198.04185422967615 -196.2461742944533, 197.5631013529476 -163.61611183060103 M196.1658223725683 -164.28661061041853 C235.19073401567226 -165.64140120484564, 268.6450031777902 -165.16023886218693, 358.6008721077015 -163.84802203546676 M197.98200791117907 -164.28327522059146 C249.74951696840554 -164.79684346842572, 299.2984738912808 -163.84775702355043, 360.2344286569976 -164.79934228931126 M358.78398055377824 -164.88905035793445 C361.84156221781 -177.5247941455249, 361.80177026235583 -193.60073683011152, 361.1600187622126 -227.85580597665606 M359.6508141270886 -163.2465531952407 C360.9480146418426 -183.76047022579903, 361.1651029131479 -204.03021138988618, 359.6440198077074 -228.22426527318487 M360 -228 C360 -228, 360 -228, 360 -228 M360 -228 C360 -228, 360 -228, 360 -228" stroke="currentColor" stroke-width="1" fill="none"/></g>
      <text x="245.928" y="-206.8" font-family="xkcd Script" font-size="14" fill="currentColor">White gain</text>
      <text x="247.48" y="-178.8" font-family="xkcd Script" font-style="italic" font-size="14" fill="currentColor">GainNode</text>
    </g>
    <g class="edge">
      <g><path d="M161.7476955717391 -197.82366975680117 M161.41021250712322 -194.01371143153926 C167.70297592184224 -197.85386687043604, 177.37055776812022 -196.0057895290145, 186.5244241961406 -194.42186253335746 M162.47848668244959 -195.11521404905372 C169.81186601081635 -196.6951570124857, 177.88351205008064 -196.79167378277387, 188.0839271211164 -196.85501080656346" stroke="currentColor" stroke-width="1" fill="none"/></g>
      <g><path d="M187.8923296115295 -199.72124990887664 C187.8923296115295 -199.72124990887664, 187.8923296115295 -199.72124990887664, 187.8923296115295 -199.72124990887664 M187.8923296115295 -199.72124990887664 C187.8923296115295 -199.72124990887664, 187.8923296115295 -199.72124990887664, 187.8923296115295 -199.72124990887664 M187.93523950303043 -192.90263884920392 C189.59690417156526 -195.35134197153678, 191.1787232225413 -196.53409590777204, 191.168363235012 -198.21656778407302 M187.3648000370818 -193.2530211650889 C189.44415652638298 -195.27128922477758, 190.5986215381945 -196.99529186787333, 191.285126237542 -197.83942070502627 M189.67807858449157 -190.1264568377807 C191.95853426766536 -191.628746288493, 192.8569378446119 -194.21431385003234, 195.19851912380906 -197.54372787124058 M189.88697163237285 -189.6217087567638 C191.9287163111677 -192.37469250967152, 193.82157737616214 -194.50666870015573, 195.8321454598939 -196.6226404902586" stroke="currentColor" stroke-width="0.5" fill="none"/><path d="M189.58393459682875 -200.26389546868043 M187.47634415231425 -199.88019584932388 C190.2290485989428 -198.45404391122963, 192.23186581212948 -198.90989393358035, 196.7589612063693 -195.13976355172886 M187.8771020367995 -199.2382429140451 C191.5953930989961 -197.97011293202078, 195.25642753957106 -196.48699661878484, 197.40932681750982 -195.9732540433618 M196.8801247411951 -195.55349879740987 C194.25017932070503 -194.75835085663886, 191.07553371304982 -194.35240958991304, 187.96601333324725 -191.64970805897437 M197.683744653835 -196.20020736020157 C194.29951419260945 -194.66986369125925, 191.34054210003583 -194.0555687366249, 187.3659819775539 -192.39706798020188 M188.1009906274787 -192.77783108846862 C187.1144751126208 -194.75574796499288, 188.2555810319618 -195.73436252776037, 187.35783536848396 -200.1166542061344 M187.79612230112937 -192.76499658069213 C187.94775100996887 -194.51326144417544, 187.43911407740447 -196.20962351997812, 187.38258461514752 -199.42336233990613 M187.7 -199.5 C187.7 -199.5, 187.7 -199.5, 187.7 -199.5 M187.7 -199.5 C187.7 -199.5, 187.7 -199.5, 187.7 -199.5" stroke="currentColor" stroke-width="1" fill="none"/></g>
    </g>
    <g class="node">
      <g><path d="M558.1981717921127 -146.00454688156523 M558.2255984802379 -144.52348085284638 C509.0050198919207 -144.97848118589974, 456.8529802025716 -147.67535245801488, 397.3479188714496 -145.70916223460316 M558.5031949845301 -145.39517091176194 C507.4608715918768 -147.1547190020486, 457.2211850570841 -147.02929782658575, 395.9418585256479 -145.07511470737214 M395.2012621786043 -144.2917031266134 C396.58826389157315 -120.54443358519538, 395.2764905025375 -95.83714263596411, 395.33348358867005 -81.96640659135528 M395.1528162263085 -146.69144129056627 C395.6749371886513 -128.22290062072673, 396.00163218123294 -110.86302287020722, 396.2974611606785 -81.50114883832495 M396.03361694433056 -80.0215170728446 C448.9660622981031 -81.76742649558231, 499.66568996673226 -80.89327904427778, 558.1247914203296 -80.32204913890313 M395.9096026512937 -82.33952062340869 C432.41048594960995 -82.41261582248507, 469.8619231447818 -81.11994340944604, 557.9263923834001 -82.01147108742994 M556.7444849197519 -82.97252867886206 C559.1030755873078 -97.05887513198905, 559.6441171420961 -108.89869215636017, 558.9887118144402 -144.62974364286399 M557.1008112083769 -81.72953212631933 C557.953216274016 -95.80760767347795, 558.5212363424006 -108.17278459154821, 557.943143441573 -146.60721133749155 M558 -146 C558 -146, 558 -146, 558 -146 M558 -146 C558 -146, 558 -146, 558 -146" stroke="currentColor" stroke-width="1" fill="none"/></g>
      <text x="449.766" y="-124.8" font-family="xkcd Script" font-size="14" fill="currentColor">Analyzer</text>
      <text x="433.031" y="-96.8" font-family="xkcd Script" font-style="italic" font-size="14" fill="currentColor">AnalyserNode</text>
    </g>
    <g class="edge">
      <g><path d="M358.39356488277156 -162.14798011505172 M354.73015476509687 -162.85448020085835 C365.2248526812498 -160.66154265296342, 374.8063285959485 -155.53694653734092, 388.6723982091416 -148.71813232519725 M356.5080922714037 -163.36307589925485 C367.5778489395417 -158.61918498282552, 378.19138974001197 -154.27797722804533, 390.23686427612677 -150.67465868417682" stroke="currentColor" stroke-width="1" fill="none"/></g>
      <g><path d="M392.0445638266359 -153.43070655166485 C392.0445638266359 -153.43070655166485, 392.0445638266359 -153.43070655166485, 392.0445638266359 -153.43070655166485 M392.0445638266359 -153.43070655166485 C392.0445638266359 -153.43070655166485, 392.0445638266359 -153.43070655166485, 392.0445638266359 -153.43070655166485 M390.6124383786718 -145.18419755072458 C391.66068853889504 -146.3436218387442, 392.48193483003905 -148.12356803509564, 394.0687787505359 -150.06638476704524 M390.7328812179595 -145.3821116081285 C391.81773657990914 -147.21315921549777, 393.4998081814647 -148.7514675230845, 394.15372454083666 -150.11121050493156 M395.25724185321343 -145.32236401744274 C396.23968916061074 -145.90739164666232, 396.78083157119653 -146.744021687172, 397.29963988511304 -147.56125294022894 M395.41803167285235 -145.0552597071911 C396.01438300770087 -145.8707331110895, 396.8257174565358 -146.81081662074956, 397.45422169456805 -147.47945243991086" stroke="currentColor" stroke-width="0.5" fill="none"/><path d="M393.68816013366995 -153.6106692184431 M391.58120177318057 -153.46216484362256 C394.63448816725787 -151.83412243355775, 395.64316208935554 -148.8333509857237, 398.75979884278354 -146.02021341086237 M391.6519070554118 -152.91409741990432 C393.8836731979141 -150.69471959677423, 396.50711782050706 -149.11186115018214, 399.49055753970447 -146.0862111173286 M400.13804863122436 -147.07728828007 C397.48314444628005 -145.2946559486752, 392.3934429550177 -147.14179592628605, 389.3042957459273 -147.41715953344718 M399.28974896961176 -146.35278863470364 C395.7377830696394 -146.3417233097133, 391.7005225431333 -146.03735107579826, 388.62832239713276 -146.84691700390536 M388.62015779694855 -146.55156614419076 C390.1010141506649 -148.2264580665507, 390.58144305811066 -150.55430939079957, 392.2263670303898 -152.64051741514564 M389.11073201588886 -146.88774178801455 C389.84444269792175 -148.83432046461755, 391.237760000698 -151.77993127143847, 391.9118746716859 -152.87710647489692 M391.751 -153.093 C391.751 -153.093, 391.751 -153.093, 391.751 -153.093 M391.751 -153.093 C391.751 -153.093, 391.751 -153.093, 391.751 -153.093" stroke="currentColor" stroke-width="1" fill="none"/></g>
    </g>
    <g class="node">
      <g><path d="M754.1448931644813 -146.63701661437622 M756.9411663607978 -144.82007684804256 C698.7864449407813 -144.7969502204399, 641.7844129423472 -147.02339903217012, 595.5277824685929 -145.93347451886132 M756.7445740258461 -146.85256216288693 C707.9651099548 -145.22208828246917, 660.0955539342568 -144.82518011043805, 593.601774825064 -146.73896479753597 M593.3037621901013 -144.07641292270057 C592.9022495250061 -124.86492245413675, 594.1480422626333 -99.79339820974724, 592.7445587035215 -80.85982063574484 M594.4960844742773 -146.99305058513218 C595.4463632110693 -121.90045265872922, 595.2078443687336 -99.17183610580838, 593.955301816285 -82.07426462267911 M594.2219002432646 -81.57042759706201 C633.2271375237636 -82.54221868476704, 673.3782476955815 -80.80262711944656, 757.9760030535393 -83.16405195270083 M594.4136782584109 -81.63292549604088 C629.7623544942243 -80.37013592621673, 664.5225050987557 -80.24279660217519, 755.4361079306103 -82.65445573640139 M755.593344258598 -80.1459371494438 C757.7428080739135 -104.76842826345134, 756.6532522837357 -127.08043742564594, 757.0764777234776 -145.39034872110648 M755.5810902979529 -82.87550811203943 C755.2260720894561 -97.88055219444935, 755.0878574908668 -112.81340644601069, 755.2908090596404 -146.38768557424336 M756 -146 C756 -146, 756 -146, 756 -146 M756 -146 C756 -146, 756 -146, 756 -146" stroke="currentColor" stroke-width="1" fill="none"/></g>
      <text x="639.98" y="-124.8" font-family="xkcd Script" font-size="14" fill="currentColor">Destination</text>
      <text x="605.342" y="-96.8" font-family="xkcd Script" font-style="italic" font-size="14" fill="currentColor">AudioDestinationNode</text>
    </g>
    <g class="edge">
      <g><path d="M557.458721659976 -113.98358933205783 M558.6705540831488 -115.30308202226239 C565.3132255299145 -115.71745296255627, 574.1636151325157 -113.80804278362345, 585.1004249220742 -114.49161195044512 M558.1141694702187 -113.98912068977465 C566.2364820946175 -113.15656745382867, 576.69396454954 -113.20477938802512, 582.8789732297736 -114.22772178885762" stroke="currentColor" stroke-width="1" fill="none"/></g>
      <g><path d="M583.9492821601473 -117.78676632151723 C583.9492821601473 -117.78676632151723, 583.9492821601473 -117.78676632151723, 583.9492821601473 -117.78676632151723 M583.9492821601473 -117.78676632151723 C583.9492821601473 -117.78676632151723, 583.9492821601473 -117.78676632151723, 583.9492821601473 -117.78676632151723 M583.3700507420058 -111.6024569484682 C584.7432844910452 -112.97911454908032, 586.3219844032238 -114.79838312670601, 587.3133490466065 -115.69695051677712 M583.5775114698273 -111.59181638045322 C584.8189234909543 -112.63046882627722, 586.4853779765826 -113.96769757081078, 587.5434072061611 -115.89181994484439 M585.3136017584582 -107.6998971374338 C588.2566913911925 -111.1245777480175, 590.6954557460217 -112.73407143362218, 592.4403141936039 -114.43598075769067 M585.84534618792 -108.14956199318786 C587.6125710042913 -109.66163221937947, 589.1198994134751 -110.97280429045038, 592.3496562754983 -114.519907648477" stroke="currentColor" stroke-width="0.5" fill="none"/><path d="M584.1779700021257 -118.61099507253321 M583.9213962944442 -116.72890802755103 C586.2475115373286 -117.66697992857304, 588.5961428070241 -116.2891350770189, 594.6819363066118 -114.0601254062618 M583.5034137347297 -116.99228152732348 C585.6197932371122 -116.9544380265304, 588.2135524568324 -115.99749393099917, 593.5440526414529 -114.42250956487268 M593.6680618083607 -113.68930583453415 C589.2969423773792 -112.64325643244922, 584.7542886670735 -112.05003084541443, 584.1282240295461 -109.52241055275266 M593.7215204770886 -114.26706085614173 C590.6919333996102 -112.6482016642339, 586.8961049179665 -111.2331021855923, 584.0155833219928 -110.62945440967034 M583.8456044908414 -110.96136970836503 C583.2636952151163 -112.74694091369737, 583.3765357110524 -113.57571380723967, 584.082164184578 -116.80944217247344 M583.5108171326782 -110.73713872083931 C583.6344770681336 -112.07647191252661, 583.5183389447897 -114.50992655888109, 584.0197961718909 -117.45185392544045 M583.7 -117.5 C583.7 -117.5, 583.7 -117.5, 583.7 -117.5 M583.7 -117.5 C583.7 -117.5, 583.7 -117.5, 583.7 -117.5" stroke="currentColor" stroke-width="1" fill="none"/></g>
    </g>
    <g class="node">
      <g><path d="M160.3120363326823 -144.46657313283964 M163.29742679791818 -144.37157376285364 C125.34074833271606 -146.6286621683786, 94.23715551972035 -144.43065270254718, -0.5154060040306776 -144.20863134816645 M161.3691433202936 -145.15234573764567 C126.4762909837574 -145.87994318733465, 93.38926076161142 -146.54079636934875, 0.6077311937496366 -145.50801892586256 M1.7031260971098936 -145.7771015883055 C1.2201016469805115 -127.51036208431806, 0.9911188449162632 -114.81297769621212, 1.9605198657151561 -83.7650098939742 M-0.16928481589986477 -146.94836520958762 C0.030622240808376278 -126.81107760312699, -0.9930066005368625 -108.64527353660588, -0.642982202116924 -81.206076717764 M0.3441574492704218 -80.35873394161527 C45.01489758301588 -80.82312553909155, 88.27471527921992 -79.6511600165936, 161.16854433908856 -83.16556132677754 M-0.0049623197075607806 -82.96290062299029 C33.258596302420365 -81.1213675042681, 65.20800840690958 -80.92392121130322, 162.28362925252554 -81.9729524111274 M162.07087099420565 -81.87174357267754 C160.56653651507798 -97.9155623159744, 160.27706073128246 -112.39257374088697, 161.53778360401478 -147.29620036727545 M161.37247636831015 -82.04629928709063 C160.85679011777742 -101.16464421411597, 161.85561625527157 -119.89582725800413, 162.52359055481023 -146.81546658201975 M162 -146 C162 -146, 162 -146, 162 -146 M162 -146 C162 -146, 162 -146, 162 -146" stroke="currentColor" stroke-width="1" fill="none"/></g>
      <text x="48.704" y="-124.8" font-family="xkcd Script" font-size="14" fill="currentColor">Pink noise</text>
      <text x="14.862" y="-96.8" font-family="xkcd Script" font-style="italic" font-size="14" fill="currentColor">ScriptProcessorNode</text>
    </g>
    <g class="node">
      <g><path d="M358.26699963342156 -146.95120693458216 M358.05683998682815 -147.19993862183327 C300.02994143324673 -144.63652693918178, 241.99621349256205 -144.7539694684841, 197.3667824023788 -147.66520563786833 M360.71824975882004 -146.4718063702943 C301.5101677371372 -147.08449253218743, 243.19150043468045 -147.40485211227528, 197.96406097054003 -145.79212860327982 M197.7139764233887 -147.8175342054976 C197.34340327389666 -121.59836348041502, 196.6765006062329 -98.34016526191174, 197.188537766758 -80.28620644236214 M198.45599192564214 -146.4444447774613 C199.18700935685402 -130.3873734038937, 198.35545069477013 -117.26722980846063, 198.9590588901027 -81.92291036378704 M196.7430889353641 -83.76164923843768 C238.37398451185777 -82.44404193453231, 275.4865494645305 -82.9160659444342, 361.8392858331732 -80.85857837484119 M197.3865555479476 -82.45416244673125 C259.9698025717855 -83.94636700673604, 320.751565382897 -83.00582771566224, 360.9003355181997 -81.03472101401458 M358.77347901520295 -80.34081224018396 C359.4998365982371 -98.49884659932093, 359.6686908883535 -116.1139862297877, 361.67158485824916 -146.6897341648412 M359.23346369972876 -82.30695684288263 C360.49422270186375 -106.17516615100945, 360.82228006263966 -130.2892944291173, 359.2300781597964 -146.89440644313692 M360 -146 C360 -146, 360 -146, 360 -146 M360 -146 C360 -146, 360 -146, 360 -146" stroke="currentColor" stroke-width="1" fill="none"/></g>
      <text x="250.204" y="-124.8" font-family="xkcd Script" font-size="14" fill="currentColor">Pink gain</text>
      <text x="247.48" y="-96.8" font-family="xkcd Script" font-style="italic" font-size="14" fill="currentColor">GainNode</text>
    </g>
    <g class="edge">
      <g><path d="M163.86314717417795 -112.24811942461234 M160.87216908140263 -115.06917768804206 C170.2650331118892 -115.03994098320203, 180.9160046545204 -113.3697448033361, 185.672068928703 -115.30314799889005 M161.54613778455183 -114.02316388052873 C168.82184612726618 -114.79376860368667, 173.05930074111515 -114.89890871099438, 188.17039526611538 -114.68463282205028" stroke="currentColor" stroke-width="1" fill="none"/></g>
      <g><path d="M187.81766063252243 -117.63535307442746 C187.81766063252243 -117.63535307442746, 187.81766063252243 -117.63535307442746, 187.81766063252243 -117.63535307442746 M187.81766063252243 -117.63535307442746 C187.81766063252243 -117.63535307442746, 187.81766063252243 -117.63535307442746, 187.81766063252243 -117.63535307442746 M188.1120150374315 -111.06320145295952 C189.53327022466556 -113.21980310066935, 190.49545901895516 -114.80385161706991, 191.30406790596336 -116.33907976575077 M187.31905377430544 -111.35183708911849 C188.61327484924598 -112.58648188366291, 190.18959282954972 -113.92663291711592, 191.36202504084196 -115.9512012569112 M190.75627730493161 -108.97333006272369 C192.94201057902498 -111.09810527094032, 194.28783072175747 -113.67295930521165, 196.19828410251145 -115.3023053287548 M190.38161417793083 -108.5551603031037 C192.13270988064414 -110.0629121226198, 193.29296031084127 -111.71694017300857, 196.08650275686966 -114.4693397164639" stroke="currentColor" stroke-width="0.5" fill="none"/><path d="M186.25386796122737 -119.34698554761218 M187.0498024173268 -118.43315820718666 C189.3577922165807 -116.54495299404785, 193.84471948047607 -114.97314515268013, 198.0004776817605 -114.71427581620692 M187.55430890619937 -118.00105128374683 C190.4540239692038 -116.62460894412563, 192.7135864945208 -115.72051214917514, 198.02588611899822 -113.95471562785914 M197.38335141134084 -113.70031912539783 C195.17385468855028 -113.51818213184882, 190.08225274855826 -112.00167747121098, 188.21211048209992 -110.27412249449968 M198.05690767308027 -114.25337007384863 C194.16544093376422 -112.23768766762751, 190.75906347325343 -111.47416686349976, 187.99617552208798 -110.47998370847064 M187.3168565752725 -110.67957429866185 C187.6427202981836 -111.54448713969914, 188.34515266633846 -114.16987831990124, 187.22325970868738 -116.8454642293582 M187.80358307514308 -110.83252719174858 C187.97940670406962 -112.35833221025247, 187.7667856642878 -114.31528896547321, 187.96906758418245 -117.38959133834895 M187.7 -117.5 C187.7 -117.5, 187.7 -117.5, 187.7 -117.5 M187.7 -117.5 C187.7 -117.5, 187.7 -117.5, 187.7 -117.5" stroke="currentColor" stroke-width="1" fill="none"/></g>
    </g>
    <g class="edge">
      <g><path d="M361.269141237592 -115.49700302769622 M362.07407313677606 -112.32473055329606 C366.7256060336892 -113.76645022350395, 370.18087030941274 -114.40541297946852, 387.3382853279315 -112.3940794720795 M359.7902179433861 -113.50321652635404 C366.9612029369516 -114.83578570021959, 371.63117955576274 -113.42086054307046, 385.8336827730258 -114.19876072849348" stroke="currentColor" stroke-width="1" fill="none"/></g>
      <g><path d="M385.88347139633487 -117.71105969797236 C385.88347139633487 -117.71105969797236, 385.88347139633487 -117.71105969797236, 385.88347139633487 -117.71105969797236 M385.88347139633487 -117.71105969797236 C385.88347139633487 -117.71105969797236, 385.88347139633487 -117.71105969797236, 385.88347139633487 -117.71105969797236 M386.14454610288755 -110.94785366881311 C386.8111344499312 -112.16763909845734, 387.90047341720594 -113.15969805295923, 389.94325938024195 -115.67351765102121 M385.4520331300615 -111.5261437487987 C387.24598979694525 -112.64142553897754, 388.20596986049884 -114.63802769971464, 389.54142992025527 -115.65092190287992 M388.7545596488822 -108.09880102521696 C390.2088457198209 -108.91684269008931, 390.17650669853856 -111.9911475814479, 394.256447558423 -114.47484323106421 M388.1158248178054 -108.27886242849323 C389.36696522389036 -109.53435229143699, 391.5803227900038 -111.93234533961089, 393.79584044528366 -114.84784956071638" stroke="currentColor" stroke-width="0.5" fill="none"/><path d="M385.1367386755797 -118.17327770112138 M385.1068589321644 -116.5398132807087 C387.89067796954777 -116.28840990825483, 392.7166715971121 -116.30580435193914, 395.8123828537895 -113.2204332518395 M385.62724406225846 -117.36951544029436 C387.3418561414706 -116.91455869447394, 390.2069324329856 -115.66832999021968, 396.2007756004084 -114.01797975649612 M395.3796749865211 -114.60693119441446 C393.0466328018295 -113.95412366623414, 391.2131772734431 -112.84320491244712, 385.6891178061968 -110.6826400090335 M396.18913083803665 -113.82173360396911 C392.4510957544667 -113.27328600086273, 388.9988648857214 -111.71386061351997, 386.0328231988409 -110.61621186191391 M386.24871667305257 -110.1287017061453 C386.1510631796773 -112.15159945778214, 384.9743903046626 -113.66347772669504, 386.0568268666704 -117.48034617334503 M385.4010402290793 -110.49545677917068 C385.6224099449909 -112.87186058693004, 385.6851163954195 -115.63489549516002, 385.5634812749316 -117.22999536380439 M385.7 -117.5 C385.7 -117.5, 385.7 -117.5, 385.7 -117.5 M385.7 -117.5 C385.7 -117.5, 385.7 -117.5, 385.7 -117.5" stroke="currentColor" stroke-width="1" fill="none"/></g>
    </g>
    <g class="node">
      <g><path d="M162.45431938191643 -62.45990162845715 M163.93728992780598 -64.63917669049927 C130.09194126995664 -62.56245995514056, 94.53677083606375 -61.6802259275446, 1.0674505703821682 -64.95815221575789 M161.00377186129202 -63.21877395890594 C111.63579848058419 -64.0482894318924, 60.35166284021486 -64.08175319349142, -0.2590642108668564 -63.68375460730063 M0.999702147135336 -64.57438457945949 C-1.263004846991722 -38.171087371144296, 2.27914689984797 -12.437681784335464, 0.7883844260965489 -1.887082563355066 M0.8676435777740616 -63.58010196323459 C-0.02012583590199646 -47.78097018018903, -0.39265846217437894 -29.83333221918857, 0.8400269732045014 -0.6936578188490232 M0.7485459060327013 0.9158199471684494 C56.157084831998716 -0.3681085174457066, 112.33864122789544 -2.3347476742322253, 162.5994012341554 -1.105628713640959 M-0.38772402121488625 0.3789360608687078 C58.506829700462276 -2.0665270172591734, 116.87195077983887 -2.3017232439164115, 161.19329054105094 -0.12776960743461396 M161.8722309076338 0.7619031418536455 C160.7354006208303 -16.814822758687008, 162.66306116078692 -30.84542735454977, 163.5339105963974 -62.20243090671892 M162.53109368333472 0.2514535021630975 C161.72278787637524 -17.830840006222164, 162.4115867248179 -35.1933408554642, 162.83042279028723 -63.34892685492231 M162 -64 C162 -64, 162 -64, 162 -64 M162 -64 C162 -64, 162 -64, 162 -64" stroke="currentColor" stroke-width="1" fill="none"/></g>
      <text x="49.48" y="-42.8" font-family="xkcd Script" font-size="14" fill="currentColor">Red noise</text>
      <text x="14.862" y="-14.8" font-family="xkcd Script" font-style="italic" font-size="14" fill="currentColor">ScriptProcessorNode</text>
    </g>
    <g class="node">
      <g><path d="M359.41394727308284 -65.18938731947343 M358.9690640453058 -65.95413812135097 C299.7397464089763 -62.49892004291006, 239.63083815311757 -63.53396026487223, 197.29340297050442 -64.56733049157717 M359.11297369880754 -63.97837054743694 C318.6435488292655 -63.52168804687552, 277.8165888523427 -62.36108278864911, 198.82803341476588 -63.453308408304125 M196.60234906208518 -63.35060780526822 C197.29939603618175 -46.34167224429032, 197.46413322543805 -26.031604346213328, 196.77270217401227 -1.0402058007744088 M198.5124487965454 -64.40027656573027 C196.98272911337637 -48.70402185660651, 198.5227872743255 -31.28774045672627, 197.1557162492868 0.47849190614240955 M199.09010255311188 -1.964304780706117 C231.4568039272668 -1.3156983308756147, 264.3660535234067 1.7851526670099251, 359.92429600032654 1.7765581345715953 M198.71245426382205 -0.5714264648608278 C240.27693074496307 0.583796059183834, 284.5094566444124 0.536423812246378, 359.8666424816563 0.7129023653916016 M358.16861375682277 0.28052467979485574 C359.43383702764896 -25.65752909733927, 360.1613091982362 -49.99310852576129, 359.3320229925456 -63.984705670462944 M360.9502929163663 0.9210466775798607 C359.69651625412877 -25.585595285764533, 361.05350818886325 -50.02925983651383, 359.89715764272677 -63.27795080524813 M360 -64 C360 -64, 360 -64, 360 -64 M360 -64 C360 -64, 360 -64, 360 -64" stroke="currentColor" stroke-width="1" fill="none"/></g>
      <text x="250.98" y="-42.8" font-family="xkcd Script" font-size="14" fill="currentColor">Red gain</text>
      <text x="247.48" y="-14.8" font-family="xkcd Script" font-style="italic" font-size="14" fill="currentColor">GainNode</text>
    </g>
    <g class="edge">
      <g><path d="M163.4307596352044 -30.479744734408342 M160.8611050678447 -32.42257908522546 C169.85165097547818 -32.652820246736475, 180.3391585061531 -32.855384208483386, 189.3413610444948 -30.19698415218371 M161.50512177374904 -31.17777237522439 C168.3659382196944 -31.189627853845266, 173.13867461875913 -31.887493345532235, 187.07474224740656 -31.542078871721383" stroke="currentColor" stroke-width="1" fill="none"/></g>
      <g><path d="M187.74299165351533 -35.54945623997827 C187.74299165351533 -35.54945623997827, 187.74299165351533 -35.54945623997827, 187.74299165351533 -35.54945623997827 M187.74299165351533 -35.54945623997827 C187.74299165351533 -35.54945623997827, 187.74299165351533 -35.54945623997827, 187.74299165351533 -35.54945623997827 M187.90740514254725 -28.561321111221805 C189.08887872079535 -30.78359385184169, 191.3878786846459 -33.917472466717335, 192.1362193685619 -34.82382314081706 M187.40350432927644 -28.866922661337487 C189.39059906936419 -31.04626669116389, 190.8009118651834 -33.15498171939941, 191.87659273416133 -34.202792046444735 M190.4999348004685 -26.978211121654287 C192.58406880927444 -28.31959325435497, 194.77965360105478 -30.67111293061909, 196.20068954859997 -33.277084709440246 M190.2380826236151 -26.87065341821809 C192.3278525950214 -27.899438551854292, 193.57859266934992 -30.144158819878733, 195.44591291346018 -32.32500306127557" stroke="currentColor" stroke-width="0.5" fill="none"/><path d="M188.70587037900034 -37.35177515859399 M186.9143256412987 -35.80627388111791 C192.02529743356487 -34.12833058829026, 194.8154355588901 -33.659160085380805, 198.3912335978363 -32.03003729093277 M188.198364604468 -35.25512574629276 C191.56184985801912 -33.81102514651467, 194.89759561539447 -32.94256036001875, 197.99165380017305 -32.43767811930767 M198.31745222957602 -32.738024344880486 C194.6376296678132 -31.370463687353574, 192.22671774731367 -30.57144780101533, 187.42043442381052 -27.465826507642724 M198.0088224568952 -31.497261847019693 C195.68161913304363 -30.84712856534253, 192.9401244048911 -29.808578929255102, 187.2846282060114 -28.64517429346725 M187.37835576820936 -28.508755629998372 C187.459615894564 -30.153705952506083, 187.41865974177526 -32.2317257656246, 188.01639679172803 -35.685120201239755 M188.020372058362 -28.577119645349512 C187.6619091074902 -29.6799528099383, 187.43255482189372 -31.711244462512347, 187.39667789778795 -35.46225325412614 M187.7 -35.5 C187.7 -35.5, 187.7 -35.5, 187.7 -35.5 M187.7 -35.5 C187.7 -35.5, 187.7 -35.5, 187.7 -35.5" stroke="currentColor" stroke-width="1" fill="none"/></g>
    </g>
    <g class="edge">
      <g><path d="M355.66891159896215 -64.9357885080129 M357.5063915827221 -63.30926789144175 C364.1594819402511 -67.44573953671727, 372.88693664762457 -72.83516198415519, 389.0268703666413 -76.58566877125408 M356.7569499506871 -63.22358289551439 C367.5605556631753 -68.74450433082468, 378.6597579778342 -72.99513023807954, 391.18578657780927 -78.90955422222676" stroke="currentColor" stroke-width="1" fill="none"/></g>
      <g><path d="M389.2904232320203 -81.62411681711205 C389.2904232320203 -81.62411681711205, 389.2904232320203 -81.62411681711205, 389.2904232320203 -81.62411681711205 M389.2904232320203 -81.62411681711205 C389.2904232320203 -81.62411681711205, 389.2904232320203 -81.62411681711205, 389.2904232320203 -81.62411681711205 M390.99235264441694 -77.78816250041119 C392.8584492771713 -79.44936295338886, 394.34256599511053 -80.71250399694142, 395.16984551907535 -82.31181229019799 M391.1344106149726 -77.30799403997047 C392.4008518281772 -79.02065689635126, 394.3488809056083 -81.09783716574712, 394.9016580518265 -82.31222449422003" stroke="currentColor" stroke-width="0.5" fill="none"/><path d="M387.8023578945307 -81.4987905112408 M389.2698280135783 -80.74684819062126 C391.90524026156663 -81.45459331385146, 394.0670349134334 -80.72159235714685, 399.41103485809714 -82.93958111466931 M389.1682255620006 -81.67456525098592 C392.681808180938 -81.26290537016808, 396.76948793376926 -81.60329498272056, 399.16515406925475 -82.21589818154646 M400.1553139668352 -82.26996108982823 C396.30478300567034 -80.02188283500512, 394.38456549413445 -77.7833043836657, 391.60838562097837 -74.22578420340228 M399.86238451092004 -81.44807626630225 C397.67840558514536 -80.1238505803016, 395.7612672790077 -78.75598155744548, 392.2765260504732 -74.54445952883428 M391.08858065373624 -74.24439580257962 C391.2695098182953 -76.90325038620831, 390.0861787557867 -80.49924303799747, 389.59589180555645 -81.73630503052111 M391.80616489111446 -75.04517932380516 C391.00538896372103 -76.95726695721669, 390.0799971763745 -79.07733163137158, 389.39186002205383 -81.43150206597133 M389.073 -81.374 C389.073 -81.374, 389.073 -81.374, 389.073 -81.374 M389.073 -81.374 C389.073 -81.374, 389.073 -81.374, 389.073 -81.374" stroke="currentColor" stroke-width="1" fill="none"/></g>
    </g>
  </g>
</svg>