<svg viewBox="0 25.2 764 286.4" xmlns="http://www.w3.org/2000/svg">
  <g class="graph">
    <g class="node" transform="translate(4 282.4)">
      <g><path d="M161.50370347305932 -227.7910888676999 M163.2978849605519 -227.00812904235133 C121.8461626654478 -229.88371978465966, 86.68603926230458 -228.18121571547297, 0.4577421970339879 -228.76936796143121 M162.98756179342382 -227.1923154712896 C98.03668330640947 -228.44268042931932, 32.408287020315825 -228.27936204271384, -0.45292513661856937 -228.50243997009315 M-0.5603802290761948 -228.93281187589753 C-0.24371126472386995 -205.31061051633006, -1.1196500645960061 -187.51515676847615, 1.8028266491166196 -163.0712322942119 M0.355294462744276 -227.9528438131084 C-0.8802273558234295 -211.72445706399037, -1.2445694452203688 -196.06377271206804, -0.41209789720500334 -164.71845194398392 M-0.08796197267421313 -162.75839763991752 C43.078205128038455 -162.87882495869505, 83.89946670757674 -163.79647616898015, 160.41661072316015 -165.99933081522383 M0.053963065531533516 -164.52816390222617 C37.046759758726914 -165.00191180365223, 74.47833437776654 -164.73880444586018, 161.58927401996175 -164.07332746843073 M163.05549592120192 -165.01718994939156 C163.55212160596133 -188.2274918966366, 161.63934227577573 -212.26621702703198, 160.1922991326387 -228.84029122871522 M161.84141197926232 -163.5649934177171 C161.17269718907266 -182.0266504472425, 161.007729651941 -200.95945914473572, 162.0320466577417 -228.55840578666084 M162 -228 C162 -228, 162 -228, 162 -228 M162 -228 C162 -228, 162 -228, 162 -228" stroke="currentColor" stroke-width="1" fill="none"></path></g>
      <text x="45" y="-206.8" font-family="xkcd Script" font-size="14" fill="currentColor">
        White noise
      </text>
      <text x="17" y="-178.8" font-family="xkcd Script" font-style="italic" font-size="14" fill="currentColor">
        ScriptProcessorNode
      </text>
    </g>
    <g class="node" transform="translate(4 282.4)">
      <g><path d="M359.64208220320404 -227.89177939688426 M360.8074434218009 -229.06077740301006 C316.92124149857835 -231.0467563557429, 271.96421683519554 -231.51005153901903, 199.36555013130592 -227.892177489491 M359.7037365221968 -228.68255305170462 C315.25227763932116 -227.17513008965943, 272.1865796970912 -228.29537769844708, 197.13849571647668 -227.43798071527 M199.15030574416025 -226.54812587273221 C196.87564796940453 -212.6071062459046, 197.47126320505976 -196.14212500224465, 197.59981481847447 -164.02824022651785 M197.48265753874523 -228.9097169730426 C197.78475373816292 -213.68247316605758, 197.54106185207152 -199.5089799371954, 197.54784831429495 -164.2670653603679 M196.58306488432842 -163.2575718511551 C233.60795677357962 -162.76456299598732, 270.29751168240705 -162.01565384547484, 359.6794681898963 -165.32139970494762 M197.37586021309636 -163.61451064050075 C231.46072439832065 -161.87534023134654, 262.6507908643828 -162.69402313916706, 359.1622210703933 -164.40394683614488 M359.1244376482525 -165.88491870984782 C361.8899962945706 -179.99669119886298, 361.8435654123632 -196.88042846753433, 359.559958052651 -229.1892848016714 M360.71610652764264 -163.02836453068852 C360.7151792018775 -184.6001573891001, 360.13496814451247 -207.73395410393937, 360.96552101148893 -227.5552147959027 M360 -228 C360 -228, 360 -228, 360 -228 M360 -228 C360 -228, 360 -228, 360 -228" stroke="currentColor" stroke-width="1" fill="none"></path></g>
      <text x="246.5" y="-206.8" font-family="xkcd Script" font-size="14" fill="currentColor">
        White gain
      </text>
      <text x="248" y="-178.8" font-family="xkcd Script" font-style="italic" font-size="14" fill="currentColor">
        GainNode
      </text>
    </g>
    <g class="edge" transform="translate(4 282.4)">
      <g><path d="M160.98174097836187 -197.42940843716642 M161.23969041432667 -195.28706842851506 C169.67569515740996 -194.6879457775151, 176.19987550665175 -194.469663013481, 187.04842302420133 -195.03537504266706 M162.39473893600487 -196.5141464554258 C170.46197185627932 -197.05916006555654, 179.0040746084593 -196.47982680982142, 188.59192354118625 -195.43488252959003" stroke="currentColor" stroke-width="1" fill="none"></path></g>
      <g><path d="M188.0233345181399 -199.60736908097135 C188.0233345181399 -199.60736908097135, 188.0233345181399 -199.60736908097135, 188.0233345181399 -199.60736908097135 M188.0233345181399 -199.60736908097135 C188.0233345181399 -199.60736908097135, 188.0233345181399 -199.60736908097135, 188.0233345181399 -199.60736908097135 M187.80474818237005 -193.80416551532306 C188.88477968473663 -194.44475152950582, 190.07910144430406 -195.7055197082262, 191.2459022223223 -197.78393881276756 M187.83038591018288 -193.05280126229843 C188.87545838615705 -194.27838803801893, 189.6543106646501 -195.4504079064254, 191.89797724482904 -197.80650388791994 M191.08915902013362 -190.94053437368873 C191.15497230856005 -191.73751885472, 192.6112769028671 -192.4836644022746, 195.320732903459 -197.00105185090334 M191.05649967395206 -190.47483307735973 C192.45158633732527 -192.4814559496892, 194.21708258715546 -194.70660133659035, 196.15069627945928 -196.28514970054684" stroke="currentColor" stroke-width="0.5" fill="none"></path><path d="M186.0832326996207 -200.86022629018623 M188.79151471672517 -200.28866572024688 C191.6541506952882 -197.77707523486472, 194.6507581383832 -198.24900302069895, 197.52154812580952 -196.17166284727853 M188.25846783516934 -199.7148298585341 C191.2236028097386 -198.38938624093288, 193.8613254784368 -196.9404615005387, 198.09468577416052 -195.88108796698364 M198.37602644689514 -195.61645552052593 C193.68742124093347 -195.57399971211834, 189.4289058499217 -192.96752184874552, 188.04748126178944 -192.7196163908885 M197.84480857675575 -195.73934862220221 C194.7385089850889 -195.12276528689662, 190.8738100787894 -193.5251438841209, 187.78862287901953 -192.41508691513593 M187.70406609325295 -192.21006371669165 C187.67774404925672 -194.8957976593953, 187.61273769860864 -196.71155677879804, 187.68041166659512 -198.929689334262 M187.79332820147275 -192.7507573441094 C187.96095095815616 -194.35246430930405, 187.74253432925826 -195.81328210448018, 187.91784342923052 -199.40545959411523 M187.93 -199.5 C187.93 -199.5, 187.93 -199.5, 187.93 -199.5 M187.93 -199.5 C187.93 -199.5, 187.93 -199.5, 187.93 -199.5" stroke="currentColor" stroke-width="1" fill="none"></path></g>
    </g>
    <g class="node" transform="translate(4 282.4)">
      <g><path d="M557.2055327463811 -147.79957978879392 M557.8412591561788 -147.71485518743137 C508.80774871133065 -144.69992443096922, 464.4593877078857 -144.91625686588557, 396.1446902943467 -144.20299452189207 M558.8163290264521 -145.2101719040081 C512.9903851235075 -146.41941543358894, 469.08225442343695 -146.6776069171234, 396.38116019106747 -146.82060335565544 M397.5550743421894 -146.30379274081247 C393.91510603913997 -119.66980034283982, 394.3975399497159 -98.32036141301961, 395.4557263641273 -82.03303853407255 M395.53095300541196 -145.30548830550785 C395.81950793151333 -121.67911831608062, 396.8012539111922 -99.1302487971641, 396.13723925321364 -82.2174153462111 M395.05163063044097 -80.93808717621548 C455.16862196021356 -78.78535992738088, 510.62947662492127 -79.56567860687721, 557.5655653821124 -80.47368083102721 M396.28409207045837 -82.7454602497252 C451.91613727714815 -82.28361229938614, 509.0823282604544 -81.96402814987249, 558.2923941033253 -81.52666002708327 M559.2744972962696 -81.39323969187706 C555.8825872055487 -93.29730293863706, 555.9681734921753 -109.50544433141134, 556.6850853581672 -146.16056476950686 M557.4583228634053 -82.51779073736736 C559.0516398526538 -106.08096557934334, 558.4370104565284 -127.89724965019727, 558.9372867756284 -145.8655460866406 M558 -146 C558 -146, 558 -146, 558 -146 M558 -146 C558 -146, 558 -146, 558 -146" stroke="currentColor" stroke-width="1" fill="none"></path></g>
      <text x="450.5" y="-124.8" font-family="xkcd Script" font-size="14" fill="currentColor">
        Analyzer
      </text>
      <text x="434.5" y="-96.8" font-family="xkcd Script" font-style="italic" font-size="14" fill="currentColor">
        AnalyserNode
      </text>
    </g>
    <g class="edge" transform="translate(4 282.4)">
      <g><path d="M355.7464083284908 -164.91545128549933 M356.62 -163.94 C366.8566268688355 -158.0273691960411, 378.0661212465469 -153.44533077315512, 388.23442975009095 -150.70192924610896 M356.40288602361915 -162.3070166361108 C367.6077422605643 -161.30586980515372, 378.4784745347784 -154.73773056449386, 391.179632143022 -152.10514146432723" stroke="currentColor" stroke-width="1" fill="none"></path></g>
      <g><path d="M391.26634514757575 -152.78218873514393 C391.26634514757575 -152.78218873514393, 391.26634514757575 -152.78218873514393, 391.26634514757575 -152.78218873514393 M391.26634514757575 -152.78218873514393 C391.26634514757575 -152.78218873514393, 391.26634514757575 -152.78218873514393, 391.26634514757575 -152.78218873514393 M390.1895585845187 -146.13045713331346 C391.6439248747261 -147.19812728176015, 393.6643470069635 -149.12846000248976, 394.86829874858694 -149.64168139444055 M390.61127855466447 -145.9196813057078 C392.06330528628797 -146.9521775593452, 393.1140882019662 -148.62876198565016, 394.00407835904383 -150.39193422900598 M395.496910703299 -145.39342286592125 C395.81295341095137 -145.97016282202654, 396.4817219878304 -146.53656012660423, 397.11935912097414 -147.53770140679228 M395.3832667403779 -145.20579143459165 C395.88615460539154 -146.07344294258482, 396.5005373421697 -146.5510091777308, 397.25173205140885 -147.5783412772593" stroke="currentColor" stroke-width="0.5" fill="none"></path><path d="M392.47131529369364 -154.95307556604274 M391.8530608352262 -152.6916258694487 C394.2624414411466 -150.35684062993954, 396.5012754030332 -149.72865438546813, 398.78503216172857 -145.7938636448524 M391.59600283503556 -153.07600450481493 C395.05690090708174 -150.07695972643273, 397.8452209742544 -147.6152721846999, 399.12333472734355 -146.52433288366842 M399.3542501466563 -145.26090870737062 C397.4961235564317 -145.87868628423377, 394.48323709033525 -146.02802427693314, 388.78921128172357 -145.66858635198636 M399.10885796564656 -146.40709702545226 C397.4755007466611 -145.98103981657195, 394.8322668158912 -146.15924938494638, 389.1039458083864 -146.66824539993252 M389.1087116879716 -146.19662786057899 C390.2791847525779 -148.31590816194935, 390.93090165128643 -150.83191352034655, 391.92013218974216 -152.56387371622316 M388.5921128458735 -146.94543367409412 C389.1250612479708 -148.35515641321703, 390.25631469836344 -149.676555022106, 391.28805490804416 -153.23767096066737 M391.56 -153.12 C391.56 -153.12, 391.56 -153.12, 391.56 -153.12 M391.56 -153.12 C391.56 -153.12, 391.56 -153.12, 391.56 -153.12" stroke="currentColor" stroke-width="1" fill="none"></path></g>
    </g>
    <g class="node" transform="translate(4 282.4)">
      <g><path d="M757.7102005951466 -145.17109437098512 M754.5513704364994 -146.93151393404062 C724.0139298883769 -144.95432325541486, 691.5070484703272 -144.43195346529794, 592.5743917943702 -144.25158595367446 M756.1949433199418 -146.98448082190185 C705.9884403189859 -145.73142211207096, 654.7770179812109 -145.8879082418776, 594.0592292637059 -146.54050550416937 M592.1899797449657 -147.07710011013663 C594.920699238021 -128.08104147675695, 592.6958023775188 -110.47415806559522, 594.1901377544128 -80.86512262899942 M594.5073025795076 -146.80304283127822 C594.167497186318 -122.40258021662413, 593.1339834866984 -100.34338920601326, 594.2842567871381 -81.6658364297152 M594.2118456180177 -83.08958396745547 C650.76664097726 -81.62693455553774, 710.7265494772051 -80.2201826384208, 756.4412572977774 -80.84830869553599 M593.1992573386799 -82.69679229236148 C651.6780060589446 -81.19214149677249, 708.8698184024981 -81.90708923477554, 755.9943865564659 -81.01612807155897 M757.8454093464351 -80.59659869351306 C756.770458457144 -98.73060429910785, 754.7378062394401 -115.83006284390461, 755.6696226285742 -147.05316776683338 M755.044071753924 -81.26108807831142 C755.8543019562283 -105.34830838001842, 756.1866427693051 -128.25325850299734, 756.042296161133 -145.8054397456637 M756 -146 C756 -146, 756 -146, 756 -146 M756 -146 C756 -146, 756 -146, 756 -146" stroke="currentColor" stroke-width="1" fill="none"></path></g>
      <text x="641" y="-124.8" font-family="xkcd Script" font-size="14" fill="currentColor">
        Destination
      </text>
      <text x="607.5" y="-96.8" font-family="xkcd Script" font-style="italic" font-size="14" fill="currentColor">
        AudioDestinationNode
      </text>
    </g>
    <g class="edge" transform="translate(4 282.4)">
      <g><path d="M559.0831241860888 -114.00749015159359 M557.2317624242893 -112.2598610134187 C566.5671891947827 -113.80727700040498, 578.6318247765768 -112.99869315591255, 582.5510167266308 -113.89964005192462 M557.1538272188551 -113.9610959793144 C563.744992047643 -113.94072909315545, 567.5326669350139 -115.15728756079241, 583.48872155507 -114.52697696448207" stroke="currentColor" stroke-width="1" fill="none"></path></g>
      <g><path d="M584.0802870667576 -117.67288549361203 C584.0802870667576 -117.67288549361203, 584.0802870667576 -117.67288549361203, 584.0802870667576 -117.67288549361203 M584.0802870667576 -117.67288549361203 C584.0802870667576 -117.67288549361203, 584.0802870667576 -117.67288549361203, 584.0802870667576 -117.67288549361203 M584.3896196179066 -111.71997539941084 C584.4831367424852 -112.39946744555668, 585.6440853785588 -113.85908099511674, 587.8016183633011 -116.37801315707316 M583.6941345575038 -111.4066757530648 C584.6454296154197 -112.6716869313463, 585.9684884809393 -113.70182345552438, 587.5826447668412 -115.5521416925809 M585.4618882704784 -107.64852117973315 C588.9460125879253 -110.79259758484322, 591.5217952526707 -113.50243014319094, 592.0535729387391 -113.80024548280183 M586.3046447848642 -107.87536353493726 C587.387945873093 -110.20237250746392, 589.394886077954 -111.8780609801209, 592.2256129168824 -114.59850512954407" stroke="currentColor" stroke-width="0.5" fill="none"></path><path d="M583.9684119679587 -118.77762628280809 M583.896137197135 -117.53278807992395 C586.1269324610545 -116.34455898735202, 589.2889469940208 -114.99201377632947, 594.3504915548477 -113.45905546666087 M583.7947609577157 -117.02581605549872 C587.7955240457503 -116.20025294057002, 591.6384698040965 -114.96978929361677, 593.5112215796686 -114.18614177460859 M592.8796200628012 -113.76581999169115 C589.2251126398232 -112.340661682141, 585.1447239259955 -111.50133480029294, 583.96767502816 -111.40737112411271 M594.3229231644242 -114.09907890817728 C590.150902077267 -113.05604628096329, 587.1925908574382 -111.23947224086713, 583.481282758147 -110.60953040521925 M583.4766398572419 -110.81106837940598 C583.4868013782865 -113.58469497337285, 584.0612626827442 -115.40905179815701, 583.4362559077783 -117.11216915206334 M583.6456177627254 -110.32002191596669 C583.6382171879482 -112.08006404912516, 584.072978737859 -113.05937535256948, 584.0503409432682 -117.4189564424127 M583.93 -117.5 C583.93 -117.5, 583.93 -117.5, 583.93 -117.5 M583.93 -117.5 C583.93 -117.5, 583.93 -117.5, 583.93 -117.5" stroke="currentColor" stroke-width="1" fill="none"></path></g>
    </g>
    <g class="node" transform="translate(4 282.4)">
      <g><path d="M161.89186721091414 -146.44307295337157 M161.2573048043979 -145.5070577599792 C127.89289259775252 -146.409141119274, 94.56712659039118 -145.90840613876162, 1.888922549759454 -145.96564408909953 M161.57223588101655 -145.180420781297 C112.13732749280408 -144.31589799726643, 62.056986721297186 -145.87863752003094, 0.6876502011474441 -146.24603804256265 M0.7453357316905125 -146.85124787094816 C1.8277106688319575 -127.92966663123123, 2.1377854214312517 -105.9768422381521, -1.3022770875425556 -82.42662401979959 M-0.4527374512294573 -146.47531562162152 C-1.0359802617630534 -131.29995815955627, 0.3055971760774999 -116.91624028482346, 0.7485476378387061 -81.50354594591465 M0.9757514249282719 -83.20218092431173 C61.26167308481494 -83.19887806553353, 128.04499361018424 -83.13028422497516, 162.88743320220064 -81.59949436289183 M-0.24395697872483124 -81.08901333390072 C56.253882149285324 -82.31146694804303, 114.0055880851117 -82.59771253997604, 162.73893238338073 -82.34848552912767 M163.89146330825682 -81.19040915399393 C161.29688684323753 -107.59026143176243, 163.1566101252878 -130.84777271854784, 162.68187145604233 -144.8950090209 M161.44040634650744 -82.60971510552972 C162.60399202406316 -102.32274728416157, 161.82535900837215 -123.12970678538339, 161.44630160563773 -145.54144491970652 M162 -146 C162 -146, 162 -146, 162 -146 M162 -146 C162 -146, 162 -146, 162 -146" stroke="currentColor" stroke-width="1" fill="none"></path></g>
      <text x="49.5" y="-124.8" font-family="xkcd Script" font-size="14" fill="currentColor">
        Pink noise
      </text>
      <text x="17" y="-96.8" font-family="xkcd Script" font-style="italic" font-size="14" fill="currentColor">
        ScriptProcessorNode
      </text>
    </g>
    <g class="node" transform="translate(4 282.4)">
      <g><path d="M358.07177215296525 -145.5927872538875 M358.5801951206547 -146.5237967709231 C328.30989572486465 -145.97227195891634, 295.1466304545307 -145.4009918489811, 198.6695411027009 -146.5764724167172 M359.6271526670482 -145.55187160940005 C317.7343921178788 -146.7675427791341, 274.7073785006916 -146.59557945366498, 198.88740019988956 -146.2514646369008 M196.4474465993369 -145.59251046663408 C196.86451329227773 -132.9229984667949, 199.25725206875987 -117.20934033163583, 196.4529331840495 -83.03230363869261 M198.44784605765 -146.68600278910867 C198.67227545240027 -130.555204771356, 198.670463111092 -116.87797189546747, 198.32449035973826 -81.37162589476321 M199.4772965186233 -83.75639229925673 C240.11373044248012 -81.98010439974541, 279.63645805246654 -82.07107580736086, 360.75025303148914 -81.93259093687472 M198.31747696492795 -81.08467308189144 C244.72466298433196 -79.77478927491022, 290.3232162767046 -79.89941593856224, 359.32640437902455 -82.42247255810852 M361.2612054769298 -80.72092515924572 C361.72057435459425 -105.3259467329775, 358.57922666750176 -134.31562592302586, 360.0994885412538 -144.92822201600535 M360.54240482438007 -81.782315767582 C359.71025727703795 -100.60022118757009, 359.33849149176103 -121.28398733717044, 360.70910143087696 -145.49422757437665 M360 -146 C360 -146, 360 -146, 360 -146 M360 -146 C360 -146, 360 -146, 360 -146" stroke="currentColor" stroke-width="1" fill="none"></path></g>
      <text x="251" y="-124.8" font-family="xkcd Script" font-size="14" fill="currentColor">
        Pink gain
      </text>
      <text x="248" y="-96.8" font-family="xkcd Script" font-style="italic" font-size="14" fill="currentColor">
        GainNode
      </text>
    </g>
    <g class="edge" transform="translate(4 282.4)">
      <g><path d="M162.52585767010933 -112.31890428746001 M161.0787372419037 -112.31302911315544 C168.85365972478488 -112.28206405469878, 174.8298138703187 -114.3394476871814, 189.05817201385614 -114.8464622540791 M161.64041044731263 -113.55496990464344 C168.1865785400215 -114.62711394883151, 173.96686898172865 -113.73656457846992, 187.2496440573045 -114.85632306351351" stroke="currentColor" stroke-width="1" fill="none"></path></g>
      <g><path d="M187.94866553913286 -117.52147224652218 C187.94866553913286 -117.52147224652218, 187.94866553913286 -117.52147224652218, 187.94866553913286 -117.52147224652218 M187.94866553913286 -117.52147224652218 C187.94866553913286 -117.52147224652218, 187.94866553913286 -117.52147224652218, 187.94866553913286 -117.52147224652218 M187.49943371861457 -110.71769277680646 C188.30701496395673 -112.6630173469999, 190.33542316787538 -113.52881482463444, 191.76340511784232 -116.95166720941388 M188.00209152320403 -110.97511602147279 C188.5811406588712 -112.21803512656933, 189.66126252489877 -113.45126391515517, 192.34748272892944 -116.49020767673896 M190.4429424220117 -109.11435178331223 C192.4391110768911 -110.02027455498043, 193.9167304377122 -111.17888496676147, 195.9394302417514 -114.01921547097807 M191.0255532690116 -108.82747902917431 C192.03379523485737 -109.99614041447983, 193.08009473227486 -111.6926528891792, 195.84805737921084 -114.21779751262042" stroke="currentColor" stroke-width="0.5" fill="none"></path><path d="M188.5459964141923 -117.23101863179737 M188.304853889313 -117.36839369066334 C191.1757324542942 -116.61975906605136, 194.99019640131186 -115.6017064180131, 197.14988174498882 -114.46078365727955 M187.49604525102026 -117.29059245506608 C191.77687847223865 -116.41224662198532, 195.4822591482982 -114.84097857531867, 198.05704382751375 -114.46931050756339 M198.4722164073608 -112.97534733367378 C194.83202657154845 -113.47559179111164, 191.32070704121801 -111.33779935445031, 187.3323116519318 -109.58131758657643 M198.0454953623591 -113.76354156199908 C194.8000302459795 -112.74772918642329, 191.2551986913258 -111.78998657845081, 187.83337465646179 -111.010725132438 M188.00527341037963 -110.13993061910175 C188.02133588391789 -113.62259486757804, 188.29057307358573 -115.21892693194522, 188.0066038771508 -117.83906665980301 M187.67944630022637 -110.81383406942287 C187.96680449151128 -112.12360130617446, 187.66468061996628 -113.62067642731692, 187.71972081490816 -117.82387984299524 M187.93 -117.5 C187.93 -117.5, 187.93 -117.5, 187.93 -117.5 M187.93 -117.5 C187.93 -117.5, 187.93 -117.5, 187.93 -117.5" stroke="currentColor" stroke-width="1" fill="none"></path></g>
    </g>
    <g class="edge" transform="translate(4 282.4)">
      <g><path d="M359.39903966749756 -113.86564986913865 M359.9366840897396 -113.92573278313456 C367.4936915112694 -113.95660105429504, 374.68566026490515 -115.31470851630735, 383.983404973247 -112.2019115315222 M360.04374968242007 -113.30600056339765 C369.9205475344655 -114.02222805717885, 378.75510492113324 -114.43111021794343, 385.8111885723586 -114.02187863251099" stroke="currentColor" stroke-width="1" fill="none"></path></g>
      <g><path d="M386.01447630294524 -117.59717887006707 C386.01447630294524 -117.59717887006707, 386.01447630294524 -117.59717887006707, 386.01447630294524 -117.59717887006707 M386.01447630294524 -117.59717887006707 C386.01447630294524 -117.59717887006707, 386.01447630294524 -117.59717887006707, 386.01447630294524 -117.59717887006707 M385.2738950230403 -110.97946726450405 C386.9064169982084 -112.1456885710164, 387.76809683725446 -113.76964068813564, 389.7425313655715 -115.13113575049023 M385.9616622315289 -110.94993073925836 C386.3012301471883 -112.03520060104644, 387.6091788199952 -113.15188076204157, 389.6116726949302 -115.59114473786902 M388.96320690183666 -108.07493991563621 C390.0316565217747 -109.68509401592142, 391.6072652539739 -112.97522018660138, 394.65359414451194 -114.6113324881198 M388.7570480942174 -108.40126368086804 C389.9142882813913 -109.81881673902282, 391.3432800929457 -111.28911893650154, 393.7220517481704 -114.78114175929664" stroke="currentColor" stroke-width="0.5" fill="none"></path><path d="M386.6324248957018 -118.6742492578216 M385.2209551858568 -117.48679590326749 C387.3124022875088 -116.4168284928327, 391.2714531492585 -116.80355583645083, 396.65706302863833 -113.61249817594893 M386.1751975767169 -116.98958622048838 C388.73780105030676 -116.2647111454548, 391.8817944120513 -115.4756670121565, 395.8812631630883 -114.00812620973707 M396.6035902784564 -113.14958342276526 C392.4216340606658 -113.26495169331535, 389.7803644164077 -111.63225902067325, 386.17839748163817 -110.47501137717666 M395.9754371512391 -113.72106987300093 C392.2037548543399 -113.303802062532, 389.45623658507384 -111.23654240198951, 385.60072187145425 -110.06124156311566 M386.2972652749047 -110.44660688224921 C386.5346607419407 -112.64421702549922, 386.5087432266539 -115.29662335927804, 385.99487150666744 -118.10367038546232 M386.0913052515022 -110.39089751559096 C386.27033519685574 -112.72586083311333, 385.7696942543233 -115.13045630271931, 385.93747160572036 -117.74187137276853 M385.93 -117.5 C385.93 -117.5, 385.93 -117.5, 385.93 -117.5 M385.93 -117.5 C385.93 -117.5, 385.93 -117.5, 385.93 -117.5" stroke="currentColor" stroke-width="1" fill="none"></path></g>
    </g>
    <g class="node" transform="translate(4 282.4)">
      <g><path d="M160.19105450838896 -62.39994154605483 M160.71592534176148 -64.49740806333912 C123.23418040480674 -62.56390658449018, 85.57441620297833 -61.56810648374355, -0.44291424934493495 -63.430270649360466 M162.25024863836163 -64.58328987318116 C114.24343809745267 -63.63554063316146, 64.37435964046261 -64.7188866526192, -0.14274164319496174 -64.24270075389818 M-0.7955103382207644 -63.943873988486224 C-0.2670202385733549 -45.96507332375848, -0.13810143042018508 -23.717808680052137, 0.8642312296223231 -1.7195099634959838 M0.8550455642518844 -63.121926964933 C0.16749606537149797 -46.006649024204634, 0.9110889175606257 -27.9497320471782, 0.42494255769937306 0.11602164752646793 M-1.4101062140081861 -0.1288327751860443 C63.0213851469628 -0.2714647735057668, 124.80800727251585 -0.6963259468011128, 160.27617199741323 -0.4929202443041252 M-0.27292814849312785 -0.42791544200518716 C60.15023508975581 -0.24507290809241478, 119.74123128398772 -0.1950646055697487, 162.934597775875 -0.6253976011277009 M161.27327558276497 -0.9859087672136688 C160.8919353399643 -18.110217212149063, 162.84116597221887 -38.11219818174296, 163.40621380248896 -62.582221794492845 M161.17246750978288 -0.15198821966466936 C162.336619498224 -23.953682417146908, 162.29211467270744 -46.13539164178588, 162.92946189888443 -64.41258785937816 M162 -64 C162 -64, 162 -64, 162 -64 M162 -64 C162 -64, 162 -64, 162 -64" stroke="currentColor" stroke-width="1" fill="none"></path></g>
      <text x="50.5" y="-42.8" font-family="xkcd Script" font-size="14" fill="currentColor">
        Red noise
      </text>
      <text x="17" y="-14.8" font-family="xkcd Script" font-style="italic" font-size="14" fill="currentColor">
        ScriptProcessorNode
      </text>
    </g>
    <g class="node" transform="translate(4 282.4)">
      <g><path d="M358.6812099329265 -62.28719325807041 M361.27587192543086 -62.01303930605869 C323.35229009482117 -63.4580697756794, 289.5217689424282 -63.37827587182488, 198.08791357373903 -65.87039472775335 M360.17456560837286 -64.42662477740413 C311.22301099884527 -66.12453249586059, 260.32676781682176 -65.45622762628304, 198.07707614160597 -64.01735242349375 M197.34930410343537 -63.8055644840994 C199.14485507174305 -41.03861766656808, 197.96947891982796 -12.834544848755215, 199.79292604440343 -0.6451557545712827 M198.41767222653027 -63.50009177551336 C198.3594451779262 -48.77685140762059, 197.6532270435217 -33.14124836082839, 197.73126046593748 -0.3493685839138423 M197.85797672861176 -0.8426583497685423 C237.909565019692 1.0497945130101378, 278.20206127696633 -0.22393863946845194, 358.9015346045558 -0.2728247470668945 M198.97762446832678 -0.920389328448993 C253.70211913916265 -1.436476738736208, 308.75380659492885 -0.2052204194579148, 359.3597210644228 0.3146512885536228 M360.789977218945 -1.6275428323991008 C360.72879163578204 -21.44516841345426, 361.0582637290588 -39.69816109309179, 358.9573258833781 -62.7081863453167 M360.8264649368835 -0.038983269208923144 C360.7411466617936 -13.672794792490267, 361.455257211555 -28.04763806628171, 359.9328253389583 -63.72013632362476 M360 -64 C360 -64, 360 -64, 360 -64 M360 -64 C360 -64, 360 -64, 360 -64" stroke="currentColor" stroke-width="1" fill="none"></path></g>
      <text x="251.5" y="-42.8" font-family="xkcd Script" font-size="14" fill="currentColor">
        Red gain
      </text>
      <text x="248" y="-14.8" font-family="xkcd Script" font-style="italic" font-size="14" fill="currentColor">
        GainNode
      </text>
    </g>
    <g class="edge" transform="translate(4 282.4)">
      <g><path d="M162.7041360052582 -31.951842076652145 M163.72210676925246 -32.58699768435437 C168.92073723503773 -29.821682317087305, 175.45270469998934 -31.79519583648012, 186.18110158152788 -31.569092779813847 M162.4361622757567 -32.87770897599617 C167.9011675444066 -31.29765706816828, 174.37615011448497 -32.494873623481034, 188.40578155090844 -32.424778539621975" stroke="currentColor" stroke-width="1" fill="none"></path></g>
      <g><path d="M187.87399656012576 -35.43557541207298 C187.87399656012576 -35.43557541207298, 187.87399656012576 -35.43557541207298, 187.87399656012576 -35.43557541207298 M187.87399656012576 -35.43557541207298 C187.87399656012576 -35.43557541207298, 187.87399656012576 -35.43557541207298, 187.87399656012576 -35.43557541207298 M187.0000995932357 -29.236129243352256 C188.3880793883054 -30.25159132350909, 190.81446106424548 -32.83535932710465, 191.8167224044671 -34.69158603268623 M187.62456791384298 -28.74918824189663 C189.08162408614783 -31.080925949674825, 190.97975921208118 -32.848243630912506, 192.4144167628486 -34.591687246048274 M191.34379907407074 -26.248664255674647 C192.07517330336628 -28.519909780052604, 194.03148969394192 -30.245354785345576, 196.58998652297973 -32.39203840529944 M190.41113820362156 -26.54775867840798 C191.3760529441674 -27.969547457797713, 192.49488179130685 -28.935647290645804, 195.68719855446926 -32.58978177930561" stroke="currentColor" stroke-width="0.5" fill="none"></path><path d="M187.38987000431743 -34.96257034571123 M186.98107751742964 -35.00912020126119 C191.15323728605736 -34.94226638014983, 194.46953019681936 -32.10996983756701, 197.69537798057527 -30.968548373206165 M188.20035653423696 -34.98400741655033 C191.59744645182107 -33.89270212100893, 194.6610635284607 -33.519915523019286, 198.3974399901142 -31.58959920966338 M197.46577745408266 -31.113150712892054 C194.90542620205233 -30.765228429665928, 192.48628031229381 -30.19126283166347, 188.32475668057728 -27.770776470632846 M198.17637803509913 -32.08439684635079 C195.63669794200166 -31.037288203029163, 192.45403347206252 -30.24463846058969, 187.42023125040527 -28.810388170120607 M187.46740329909338 -28.078392308258138 C187.731994185962 -30.92671086326249, 187.2216710420026 -32.414481412111066, 188.14625753490932 -35.89497878213379 M188.2670437045782 -28.161471637176785 C187.5912135201487 -30.01167292437416, 187.86797284802327 -31.633989334734544, 187.75928534059653 -35.82235925107955 M187.93 -35.5 C187.93 -35.5, 187.93 -35.5, 187.93 -35.5 M187.93 -35.5 C187.93 -35.5, 187.93 -35.5, 187.93 -35.5" stroke="currentColor" stroke-width="1" fill="none"></path></g>
    </g>
    <g class="edge" transform="translate(4 282.4)">
      <g><path d="M356.530864621464 -64.47131088264813 M356.62 -64.06 C366.51897582315155 -68.74770730033569, 379.51258388497746 -73.5086649344446, 392.10029346600015 -77.27138256129129 M356.2784671460075 -64.01784446368956 C368.182137648739 -68.72622430484724, 378.41550630966555 -73.57384452090771, 387.9314026477473 -78.43106784528209" stroke="currentColor" stroke-width="1" fill="none"></path></g>
      <g><path d="M389.18593585393666 -81.71494630914935 C389.18593585393666 -81.71494630914935, 389.18593585393666 -81.71494630914935, 389.18593585393666 -81.71494630914935 M389.18593585393666 -81.71494630914935 C389.18593585393666 -81.71494630914935, 389.18593585393666 -81.71494630914935, 389.18593585393666 -81.71494630914935 M390.94004441284653 -77.87838952194191 C391.4096365838554 -78.68294385892305, 392.78432146327805 -79.0709705944793, 394.038428028806 -81.77325727019436 M390.8488959559494 -77.41570874134068 C391.92233333866574 -78.45342061097247, 392.6290876797553 -79.59499549169539, 394.08877667481096 -81.51291484376685" stroke="currentColor" stroke-width="0.5" fill="none"></path><path d="M389.6308362539043 -83.00240713769648 M389.14462321019124 -82.27980328701265 C391.87638484143235 -81.45621775239731, 393.4597332326646 -80.77366913124979, 398.957377492841 -81.52080661768386 M388.9540326134464 -81.4744645512313 C392.71164289480686 -81.71550240278343, 395.98785165645165 -82.305714768878, 399.28261244847914 -81.55303555105742 M399.62137183970316 -81.67399474228502 C396.10645840688017 -79.63790983809595, 394.5929105046362 -75.80576792411748, 392.1432838308257 -74.14588890563702 M399.84306567599486 -81.62760026356403 C397.28937384567155 -79.72403067502732, 395.3100471927558 -77.5085721430616, 391.53756670782565 -74.40339518502022 M391.0166048906019 -75.45110546535217 C390.2229886033076 -76.83880924565065, 389.494472953258 -79.59429095099694, 388.83641954553195 -80.79827462402515 M391.83200111532983 -74.74397523596548 C391.00431934336956 -76.43429109790644, 389.76924847364364 -78.95745037023146, 388.62522653014906 -81.1140026948366 M388.86 -81.33999999999999 C388.86 -81.33999999999999, 388.86 -81.34, 388.86 -81.34 M388.86 -81.33999999999999 C388.86 -81.33999999999999, 388.86 -81.34, 388.86 -81.34" stroke="currentColor" stroke-width="1" fill="none"></path></g>
    </g>
  </g>
</svg>