<svg xmlns="http://www.w3.org/2000/svg" viewBox="0 0 764 235.6">
  <g class="graph">
    <g class="node" transform="translate(4 231.6)">
      <g><path d="M162.26267397959458 -229.08571681643815 C119.13152732471339 -227.70413891389242, 73.47159022387461 -226.12659609355867, 0.5280891176923763 -229.17836911283538 M162.85844708044888 -228.08085352565064 C109.1236821416672 -228.42443566100462, 58.11378139444769 -226.67042909969317, -0.2870019784731035 -227.29018671250418 M0.24139182086797284 -226.034846297867 C-0.2417671255343461 -208.03855959826666, -0.2496350022827809 -192.72856405561484, 0.11504548494604006 -163.2901653691317 M-0.7652127116805443 -227.1095954909688 C0.791771493424203 -208.66457062672382, -0.4639313829953928 -187.2914188010462, 0.6164206063552418 -164.76395031703763 M0.3951823806103496 -162.56884446745516 C64.76198018853233 -163.4535970859132, 125.83969716971676 -164.17894819552774, 162.99597597825596 -164.9386114167609 M-0.009538813484724518 -163.76162065899672 C36.546929035522965 -164.22092932794328, 72.33641197425231 -163.4150755955914, 161.15587472803435 -163.6446879620402 M162.90602283959328 -165.90662285969097 C161.86485784422175 -179.94706806814554, 163.06418210700943 -198.63482842925652, 163.05544198019112 -225.60539376130703 M161.66801371863724 -164.0405192285059 C160.59509424397456 -178.73574798649574, 161.61356311250762 -195.36876423616326, 162.09019237003565 -227.96687089199426" stroke="currentColor" stroke-width="1" fill="none"/></g>
      <text x="45.38" y="-204.5" fill="currentColor" font-family="xkcd Script" font-size="14">White noise</text>
      <text x="17.25" y="-176.5" fill="currentColor" font-family="xkcd Script" font-size="14" font-style="italic">ScriptProcessorNode</text>
    </g>
    <g class="node" transform="translate(4 231.6)">
      <g><path d="M360.7123158578505 -225.78058255978272 C299.5522727278378 -226.63281977239066, 239.80869352245847 -227.66584675275314, 197.19899428719575 -228.76893235980836 M360.86701619046704 -227.04588566038336 C305.8034304346551 -227.3493001041412, 251.67531354630358 -225.5435486450679, 198.65320129641995 -228.0652062845254 M196.01428469059078 -229.28015672308243 C198.70348291746635 -212.5192993897292, 197.4277261169426 -196.05519458910908, 198.52015900813527 -165.27879385053384 M198.89742762127094 -228.27732367598222 C198.5199276902464 -214.68974316608623, 197.57713153080766 -201.33603481731774, 197.00030815516564 -163.71655658268574 M198.94707799304717 -163.9749777176598 C236.57224588683277 -163.42251503493523, 273.6511579548822 -165.835661056216, 360.8048642579101 -164.9097829764375 M197.92207975432206 -164.0980484501085 C247.55171384534026 -165.98983718998423, 295.8155070677661 -166.37538406440174, 360.33547325039575 -164.30913426918934 M361.14467124805515 -164.8781575329335 C358.4441980570064 -182.20161466666116, 360.8564758419192 -198.93383354830948, 361.51767139034393 -226.0458967754835 M359.2431646334714 -163.07008453763723 C359.45975273994105 -187.70173264700497, 359.6905444310379 -210.64657169439866, 359.8273320672449 -226.77734298060096" stroke="currentColor" stroke-width="1" fill="none"/></g>
      <text x="246.75" y="-204.5" fill="currentColor" font-family="xkcd Script" font-size="14">White gain</text>
      <text x="248.25" y="-176.5" fill="currentColor" font-family="xkcd Script" font-size="14" font-style="italic">GainNode</text>
    </g>
    <g class="edge" transform="translate(4 231.6)">
      <g><path d="M162.8759470006962 -194.5089380314893 C168.62657612777934 -194.08220835424044, 173.669534157735 -194.64530504159896, 184.8355813764745 -195.50530726557963 M163.0403445563339 -196.69688059281282 C171.21990272839193 -196.5816724215498, 181.32647448155717 -196.66663366571336, 185.27417460854872 -195.81246992021778" stroke="currentColor" stroke-width="1" fill="none"/></g>
      <g><path d="M185.71663709011136 -198.96252457661373 C185.71663709011136 -198.96252457661373, 185.71663709011136 -198.96252457661373, 185.71663709011136 -198.96252457661373 M185.71663709011136 -198.96252457661373 C185.71663709011136 -198.96252457661373, 185.71663709011136 -198.96252457661373, 185.71663709011136 -198.96252457661373 M186.46996101424776 -193.2498311386369 C186.8317432146845 -194.36805029930395, 188.68683873124957 -195.37132427700317, 190.59597829013447 -197.658301080991 M186.0403567208964 -193.40586785598558 C187.09179392116627 -194.2044959403296, 187.74871739390798 -195.18848111508575, 189.91254204847638 -197.84213032243335 M191.6927425159049 -193.90505235413397 C192.51997382536737 -194.41101329833916, 193.00091060210974 -195.1172551476699, 194.58883878959884 -196.71581163426765 M191.68277410975526 -193.88768804138348 C192.47485122872618 -194.22484717678785, 192.92528742731687 -195.02064059886575, 194.37815873379893 -196.55876666796007" stroke="currentColor" stroke-width="0.5" fill="none"/><path d="M185.35943952271867 -199.76645502917998 C189.1025722462243 -197.38143314630156, 192.40114083526223 -196.5391119090023, 196.59809580726855 -196.36466238981092 M185.59066504255875 -199.81465980416198 C187.55962671120915 -198.2187259055523, 189.78508809960144 -198.24188931033893, 196.43229608892588 -195.71316115066543 M196.49658203711758 -196.3421627775195 C193.29823013558237 -193.56604551235952, 189.6460680876787 -193.28203389519464, 186.9216664419344 -191.91284908903137 M195.55754553820572 -195.70203073334835 C192.37228690584982 -194.4245472620599, 189.19810398302369 -192.84751216873536, 186.48012495942598 -192.67157906185028 M185.70732501781956 -192.39286530771113 C186.68547339509823 -194.40675912092973, 186.4500436888438 -196.46837262878233, 186.08227332649776 -198.96828901900997 M186.225552967569 -192.50790778521426 C186.25517658283718 -194.23169651134134, 185.97887228515108 -196.46235571664465, 185.83836948212146 -199.54565717885717" stroke="currentColor" stroke-width="1" fill="none"/></g>
    </g>
    <g class="node" transform="translate(4 231.6)">
      <g><path d="M557.9839191845673 -145.95833523502918 C503.1552675681479 -145.29064177009212, 445.50237887360197 -146.07923571696068, 396.544027983082 -146.01139862454994 M558.2567839096771 -146.5262416537446 C513.0560422198487 -147.2832546596636, 468.12191221248605 -145.86043326316116, 395.0241288871915 -146.36333722129038 M397.49993200132025 -146.0005867668759 C395.9035143525436 -124.89878514792282, 394.8646188052797 -105.87724708141222, 397.6178110747655 -82.76514107388641 M396.5720130783374 -145.18985613630562 C395.7616071917814 -125.65768939711471, 396.1527771492697 -106.34900838336227, 396.0567500279136 -82.36996831016756 M396.0783645508432 -81.79005770769622 C444.97999339236776 -84.71732411781664, 491.4517545206937 -81.91831814572913, 557.8866515886589 -80.13047329843273 M396.0664029514434 -81.43933542173227 C451.3170763782824 -83.0380307029262, 507.5106679068165 -83.31747628100347, 558.0276259558146 -81.58414858231541 M559.9669177969513 -83.51042607651507 C559.304164145867 -95.23773093456968, 558.7078381099586 -112.03586891907139, 558.7716383978129 -144.29103123845954 M557.9268541036467 -82.7056854965847 C558.238280712225 -96.3217829523124, 558.1226326171585 -111.34325834007629, 557.3954929742076 -146.09695108761525" stroke="currentColor" stroke-width="1" fill="none"/></g>
      <text x="450.75" y="-122.5" fill="currentColor" font-family="xkcd Script" font-size="14">Analyzer</text>
      <text x="434.62" y="-94.5" fill="currentColor" font-family="xkcd Script" font-size="14" font-style="italic">AnalyserNode</text>
    </g>
    <g class="edge" transform="translate(4 231.6)">
      <g><path d="M357.18 -163.51 C365.6253762273501 -159.26148758080438, 378.92390222797053 -154.95557894592852, 387.9553237918115 -149.3562474015153 M355.7661525074199 -161.61486857438078 C369.37746905109907 -158.13764645518413, 376.6751491253274 -154.1282701969733, 389.9874176025787 -151.32089986761392" stroke="currentColor" stroke-width="1" fill="none"/></g>
      <g><path d="M389.8593154786783 -154.0053009660304 C389.8593154786783 -154.0053009660304, 389.8593154786783 -154.0053009660304, 389.8593154786783 -154.0053009660304 M389.8593154786783 -154.0053009660304 C389.8593154786783 -154.0053009660304, 389.8593154786783 -154.0053009660304, 389.8593154786783 -154.0053009660304 M387.93175028114854 -146.52743457824178 C390.0442265528189 -148.15923281985548, 391.3525178176732 -149.60192509423777, 393.2209344215961 -150.7516553612162 M388.1475154150145 -145.85669043011112 C389.9102088371116 -148.1270679745366, 391.55619019453906 -149.69123707845947, 393.1204284566903 -151.25267958353166 M393.2872270367097 -145.9140754042807 C393.90115944438907 -145.97562227493506, 393.88693851819926 -146.5119966403444, 394.97982108645164 -148.01241570133556 M393.2183279603242 -145.8497404261536 C393.80681642630503 -146.6388787444007, 394.51662950619277 -147.24826259526333, 395.1980077662984 -148.0821557771265" stroke="currentColor" stroke-width="0.5" fill="none"/><path d="M388.7467165253636 -152.75606307462385 C390.6078726455625 -152.5652272698156, 393.7930923612049 -149.57063549087061, 396.821880648426 -146.8583130409597 M389.4526386654361 -153.31451660365823 C392.02590122261404 -150.62408616732668, 395.2936934776789 -148.4000005877569, 397.8566556393315 -146.32622723253806 M398.2532451230677 -146.6023317556152 C393.25266360798275 -146.16050980421716, 390.4048725809401 -146.71626310306814, 387.2427256423078 -148.23203700409093 M397.40163094000013 -146.80553259453617 C395.0749633679443 -147.113059020293, 391.4371266878254 -146.990449386246, 387.0542356481076 -147.09335510358923 M386.2814341414499 -147.1081627504461 C387.2567227473362 -149.1601978551506, 388.4132055166458 -149.40302645413212, 389.92369608266966 -154.24280913705252 M387.2559817137179 -147.20797678529595 C387.2303331331647 -149.07242202232064, 388.2946587536103 -150.4614356672416, 389.6480961692089 -153.76433932390938" stroke="currentColor" stroke-width="1" fill="none"/></g>
    </g>
    <g class="node" transform="translate(4 231.6)">
      <g><path d="M754.8483932815827 -145.34469243574748 C719.543318034409 -144.8730562137371, 683.5067317736639 -145.13055061726533, 595.3368096294768 -145.50341659898203 M756.0328789180759 -145.75515479886877 C712.8978798749563 -145.2557504589798, 667.6255268344786 -145.5293992288081, 594.2429481157325 -144.77324902550086 M594.3115680271479 -145.10003020406796 C595.9359542053464 -129.7441145164034, 593.8610413124264 -116.3283729851824, 595.6934932165211 -83.7730475529147 M593.2709817240575 -145.60803609898565 C593.9549023787216 -126.92983466939764, 595.3578657654305 -109.21361309489701, 593.1083376315719 -82.32767694364959 M595.5575314331959 -83.96320856763057 C649.7906166407141 -83.85761686943144, 701.6276654158587 -83.76153388332744, 754.8377376875363 -81.39060651473952 M593.912274408439 -82.08056706392716 C637.3038686137394 -81.11873918406391, 682.0669363715549 -81.21844065225734, 756.4924949710958 -82.83120659216152 M757.1915132558893 -82.22926681023729 C757.0681005196836 -95.45652909332361, 754.8023175544447 -108.07237418134336, 755.2447603197535 -144.27119925521947 M755.7951724291505 -82.35287113236971 C755.4106288284478 -95.64133611256506, 755.335285388893 -110.97605871951961, 755.9295075149093 -145.97037386733282" stroke="currentColor" stroke-width="1" fill="none"/></g>
      <text x="641.25" y="-122.5" fill="currentColor" font-family="xkcd Script" font-size="14">Destination</text>
      <text x="607.88" y="-94.5" fill="currentColor" font-family="xkcd Script" font-size="14" font-style="italic">AudioDestinationNode</text>
    </g>
    <g class="edge" transform="translate(4 231.6)">
      <g><path d="M557.2604841230243 -112.28745375273054 C565.7618344050899 -111.97520403738403, 575.3069600822638 -113.96349776716897, 581.6508678870207 -112.18774215645145 M558.178102217129 -112.82817645699707 C564.033248065645 -114.3797351455078, 568.3734768057708 -113.61144439103433, 581.6591761473665 -113.12088081717322" stroke="currentColor" stroke-width="1" fill="none"/></g>
      <g><path d="M581.7735896387292 -117.02804098925432 C581.7735896387292 -117.02804098925432, 581.7735896387292 -117.02804098925432, 581.7735896387292 -117.02804098925432 M581.7735896387292 -117.02804098925432 C581.7735896387292 -117.02804098925432, 581.7735896387292 -117.02804098925432, 581.7735896387292 -117.02804098925432 M582.3403686133204 -110.93891897786129 C583.4681994398613 -112.29970268668461, 584.6036998132449 -114.30196642910775, 586.3454444948659 -115.82983835092735 M582.3825889279055 -111.37537679666232 C582.9028712633465 -112.84358945869374, 584.3697278505097 -113.90235704091221, 586.3396310572587 -115.92777021452197 M584.6234968541075 -107.6996972221717 C586.2269793070952 -109.23868645451019, 587.2601679344185 -111.15553015117142, 590.2027202680368 -115.11105831551113 M584.5549310814895 -108.01033022712724 C586.1971749859619 -110.09209243019562, 588.2106632019195 -112.35394910443077, 590.2360921190732 -114.77493213993426" stroke="currentColor" stroke-width="0.5" fill="none"/><path d="M581.3760382402737 -117.86841225123423 C584.2654357493695 -115.70844217891882, 585.7908131262927 -116.38459397720888, 593.0607490088355 -113.12835664501088 M582.1604833364541 -116.94272660250351 C584.0757643772974 -116.70933038791091, 586.6397126031446 -114.97645969212307, 591.9314214020781 -114.16442814876152 M592.5018873814095 -114.6856177861946 C589.9196242316085 -113.47120723561159, 587.5731460486843 -113.31811381686089, 582.4876740409601 -110.28037521671219 M592.0019628848662 -113.99442846159224 C589.9024620243894 -113.1473088672551, 587.7452440416612 -112.3835643002904, 581.7261309255074 -110.8222198414239 M581.9554374896074 -110.74996243460456 C582.5408827024494 -112.10155449759509, 581.6190210057902 -112.81082860167105, 581.8542345140091 -117.91267695692162 M582.2604012420488 -110.58658305025114 C581.70140078718 -112.27785330103687, 581.79888840008 -114.11313847458406, 582.1540489649686 -116.98696441765607" stroke="currentColor" stroke-width="1" fill="none"/></g>
    </g>
    <g class="node" transform="translate(4 231.6)">
      <g><path d="M161.6378508846679 -145.40377173399133 C115.13964480052141 -145.6150849814794, 68.53349688975858 -146.35221685456952, 0.4362784236446844 -145.27703895010373 M161.91595547777467 -145.4329682527722 C125.24750617674772 -146.8246713673222, 87.63516959385119 -146.71677667666208, 0.5665206148460546 -145.80393776265848 M0.7070826934505217 -144.38711210859123 C-0.6258067759764917 -131.49803957861013, 1.8378304307168394 -117.35403260224238, -1.3087334768165615 -81.2642208718766 M0.9473633369804455 -145.11771672859697 C0.44524442248250695 -127.80394946445745, 0.6851032490938151 -110.39989415529786, 0.2280850384821531 -82.68531097450769 M1.685218252710687 -83.14323766918695 C41.030108283901264 -79.46840351677378, 87.08970866392866 -82.30469001450841, 162.3551250804903 -80.12327223526111 M0.3487012388335424 -81.75636363272183 C47.78975834615568 -83.1831557426898, 95.13007872888217 -83.340842102783, 162.3253948111995 -81.93582619200672 M161.0457756634032 -82.94076608015286 C163.89700659444958 -96.0409058857144, 162.18745948943373 -108.96878783761169, 163.45022432074336 -146.5166722687088 M161.122595999344 -81.5379176146709 C161.20618308097522 -97.78923572835316, 161.22938469847935 -112.1948456445493, 162.88048751011235 -144.78946315462213" stroke="currentColor" stroke-width="1" fill="none"/></g>
      <text x="49.88" y="-122.5" fill="currentColor" font-family="xkcd Script" font-size="14">Pink noise</text>
      <text x="17.25" y="-94.5" fill="currentColor" font-family="xkcd Script" font-size="14" font-style="italic">ScriptProcessorNode</text>
    </g>
    <g class="node" transform="translate(4 231.6)">
      <g><path d="M358.2363317855259 -145.88059111600495 C296.61599261414227 -144.14009684237192, 231.4181356419753 -146.2143406877941, 199.90098363067185 -147.48639126792347 M360.127672110397 -145.71064106723773 C324.33434962895296 -145.22153011566374, 289.01214570189825 -146.99339069078357, 197.27085516160034 -145.05716883379228 M199.83822047382785 -146.62497018166988 C196.2450743303702 -130.86878108157848, 196.29055659527432 -112.6467911913544, 197.92695088595448 -80.21033752459456 M198.10402630313632 -145.79261511594999 C197.6074666718692 -129.6799534369463, 197.08309407580956 -113.96559549328514, 197.95088473214176 -81.8491816397574 M197.32020218403858 -83.49290699396619 C250.53869735360914 -82.5876978960564, 301.8260844002795 -80.53186606815653, 358.5868477003703 -83.36809121256547 M197.56908748475735 -82.33669165475874 C249.49005404221109 -83.18263687924933, 302.33670174744805 -81.97057933016568, 359.53674722042393 -81.11267655408585 M361.65368068171347 -83.90131500821109 C359.98643250416325 -96.6126988423123, 359.01148879258034 -112.73387118285166, 360.77683583399113 -144.9858956425353 M360.0150175733422 -81.1804316921323 C360.3665210643857 -106.37532776428633, 361.35092220045294 -129.21996126634838, 359.8961641896664 -145.17459846714402" stroke="currentColor" stroke-width="1" fill="none"/></g>
      <text x="251.25" y="-122.5" fill="currentColor" font-family="xkcd Script" font-size="14">Pink gain</text>
      <text x="248.25" y="-94.5" fill="currentColor" font-family="xkcd Script" font-size="14" font-style="italic">GainNode</text>
    </g>
    <g class="edge" transform="translate(4 231.6)">
      <g><path d="M164.1701866588213 -112.42696633768857 C170.11180637483713 -114.67416165274805, 176.82096784265747 -113.84421298871906, 184.32155516311025 -114.2820827974912 M162.80147644187673 -113.09430842389992 C167.48501468178407 -113.314934229725, 174.91796707694692 -112.86731927311338, 185.4458184892848 -113.12026097184125" stroke="currentColor" stroke-width="1" fill="none"/></g>
      <g><path d="M186.2980271400948 -117.63133732238731 C186.2980271400948 -117.63133732238731, 186.2980271400948 -117.63133732238731, 186.2980271400948 -117.63133732238731 M186.2980271400948 -117.63133732238731 C186.2980271400948 -117.63133732238731, 186.2980271400948 -117.63133732238731, 186.2980271400948 -117.63133732238731 M185.9729623346361 -111.69763040627997 C186.50035053400333 -111.74976346980182, 187.4374801482385 -113.77979524562495, 189.39691219997076 -116.26724553368551 M185.906470246645 -111.43828584544879 C187.02532813602946 -112.28870959524265, 187.41922741167502 -113.38130699450733, 189.83648240522044 -115.5647464778856 M192.4456897809904 -112.36911681644386 C193.16576750381813 -113.21624849150045, 193.84356772252588 -114.30471082125929, 194.1884359105353 -114.65693663767989 M192.45215262558034 -112.2427250922253 C193.03166613074112 -113.12594129690446, 193.49479875365986 -113.8041344321578, 194.33608099455114 -114.65508224686737" stroke="currentColor" stroke-width="0.5" fill="none"/><path d="M185.586906274288 -117.02617040462633 C188.93843610721004 -116.68699596129923, 193.10685534683213 -115.26687710426857, 195.5222637576048 -113.66003371986601 M186.49116174694333 -116.9477524812898 C188.90643396802724 -115.91735649313344, 190.684693933744 -115.64115625860506, 196.15706734751345 -114.13310382567403 M196.30860227114314 -113.80138992657194 C194.21770377541822 -113.6334289530035, 191.24455906422907 -112.58286183965426, 185.02752775879233 -111.1181280269172 M195.56399465729737 -113.68637937830349 C193.19433399351075 -112.72835837391543, 191.3113109970835 -112.3500704540396, 186.45989256468954 -109.83513965220955 M185.50538217163495 -110.80711776780352 C186.0510652676875 -111.84430152732696, 186.39139318813298 -113.80801776759019, 185.57052460203795 -117.00047198479395 M186.1244615430886 -110.59969697573797 C186.3878903677455 -112.22605789761452, 186.03935049467916 -113.9010606325021, 185.9345417394914 -117.02983498287053" stroke="currentColor" stroke-width="1" fill="none"/></g>
    </g>
    <g class="edge" transform="translate(4 231.6)">
      <g><path d="M360.75838680011543 -112.6665871263299 C367.62183440515486 -112.3490681377291, 377.95519559119384 -112.89031836212692, 383.1251436632748 -114.93665547349647 M360.94432362494854 -113.45127525808444 C367.1411796371836 -114.29602313417338, 375.18675990507165 -114.94375579411329, 384.59083459528256 -114.19272692738738" stroke="currentColor" stroke-width="1" fill="none"/></g>
      <g><path d="M383.70777887491676 -116.95233436570948 C383.70777887491676 -116.95233436570948, 383.70777887491676 -116.95233436570948, 383.70777887491676 -116.95233436570948 M383.70777887491676 -116.95233436570948 C383.70777887491676 -116.95233436570948, 383.70777887491676 -116.95233436570948, 383.70777887491676 -116.95233436570948 M384.5659782646008 -111.80484656015732 C385.46787545335746 -112.91609419318549, 387.35937813113003 -114.96968185421643, 388.13788248776183 -115.24629038616453 M383.85186294636367 -111.13654981471225 C385.44270782644617 -112.8510950460893, 386.15711602296733 -113.68746936934728, 387.77631850337 -115.64565705179496 M387.20500894374163 -107.33257552171008 C387.5222068102915 -109.79648207699024, 389.2135960299359 -110.50342337994078, 392.25469978376253 -114.25514820586774 M386.3337955922165 -107.95234532693055 C387.7503203053028 -109.72146620981607, 389.94758009545137 -111.85678413902616, 392.4437751547434 -114.71757214986351" stroke="currentColor" stroke-width="0.5" fill="none"/><path d="M383.42358147741777 -116.66726239105108 C387.0926085657893 -116.0672505798769, 390.82118599102034 -114.50403212167414, 394.96332334262047 -113.07103595555341 M383.64947810154973 -117.1803623677278 C387.58059946938715 -115.93907237464276, 390.8885175498985 -114.59909910787809, 394.2560699622729 -113.96767306745578 M393.46332650972533 -114.48514126801686 C391.3115587466799 -113.86475648534703, 389.78889788064953 -112.72654167121591, 383.741431622753 -109.58043701127737 M394.01751023774204 -113.8244419509041 C390.7784323685746 -112.42373074397702, 388.53341980461647 -112.24282315227148, 384.1261789537171 -110.3424913712359 M384.64514313275924 -110.50408410241337 C383.91727385467664 -112.43641327026998, 383.7606313247422 -114.40841328192109, 383.58471842249105 -116.87304530711465 M383.7622164813992 -110.5933027352316 C384.4037130263775 -112.51121857808418, 384.09857187653455 -114.54723213490941, 384.1016914250134 -117.00648781423276" stroke="currentColor" stroke-width="1" fill="none"/></g>
    </g>
    <g class="node" transform="translate(4 231.6)">
      <g><path d="M161.58598044657342 -63.385848345510325 C102.96288823817078 -64.54781881505687, 48.907696118417846 -62.34145964298941, 0.9668000316605463 -63.91994294491887 M161.41924857234432 -63.50728319495673 C122.47948110027826 -62.9481464030157, 82.09790696727653 -63.39128671904179, 0.8582767939465556 -63.72372023439163 M0.14963167715717063 -65.05785537949394 C2.1795670901766613 -45.33684941869203, -0.8287132577847779 -32.32956604926078, -0.9177892530154583 0.6277303543097164 M-0.9353286129667131 -63.26009087670628 C0.40783549369572814 -42.20522369556737, 0.8931562515343016 -21.09927226762358, 0.20462206749815426 -0.9002398192238568 M1.208276503220369 1.8132630374537833 C34.618355063053755 2.4425459063180224, 71.87246255842969 1.3582319023898233, 163.711798379682 0.4015555649218481 M0.2743390746563015 -0.9913551476487767 C41.009782351761395 -0.736045047389942, 81.58083268110643 0.1898743058050214, 162.18659664040652 -0.0640987204465211 M161.91749590915873 1.4927130621545093 C161.5302428938859 -19.685167300134946, 162.75625475013044 -37.814718464131225, 163.6709911329184 -63.24609991374796 M161.33153571422392 0.978185042595813 C163.3230807492496 -24.107075716076057, 163.02591886657802 -48.518954921227966, 162.81835216778597 -62.764162727524884" stroke="currentColor" stroke-width="1" fill="none"/></g>
      <text x="50.62" y="-40.5" fill="currentColor" font-family="xkcd Script" font-size="14">Red noise</text>
      <text x="17.25" y="-12.5" fill="currentColor" font-family="xkcd Script" font-size="14" font-style="italic">ScriptProcessorNode</text>
    </g>
    <g class="node" transform="translate(4 231.6)">
      <g><path d="M360.696336846408 -63.5194772778536 C327.65067082523325 -63.407270232203004, 293.40371479768146 -64.90858042433824, 199.824691471396 -61.878069351262226 M359.59478694141455 -63.96298950600899 C311.81554378457105 -62.66592110833999, 262.95215212014085 -63.389253730694584, 198.46297636187848 -62.61107000998987 M199.0771249281735 -64.90725872513424 C200.43581180111696 -50.05266449287918, 197.82058096618388 -32.39470673215033, 198.18246890074082 -0.9151300980159034 M198.2200327334523 -62.854681247746235 C197.78673773047734 -44.58840588734822, 199.1515129129161 -26.652982037994725, 198.74269635554808 0.10918121962473748 M196.56271082110524 0.3352578312501553 C249.06552310574085 0.45577612284653557, 299.94257478889136 2.4532520800417705, 361.29798489444903 -0.2979781684044305 M197.11486310225897 -0.6007777969016783 C238.01627612087748 0.43333675615110434, 278.28788612286263 0.3451560175550237, 360.0225708916944 -0.8365950466955172 M361.2461767194951 -0.9812447657026855 C362.2895822005601 -13.758019546491239, 359.92136596838225 -26.98073175649483, 358.86463002940457 -64.62638303010387 M359.97206630516916 0.14129308197067303 C359.6167838617619 -16.389542063196473, 359.4936075533731 -30.05834526650386, 360.0797065469622 -63.425401562004126" stroke="currentColor" stroke-width="1" fill="none"/></g>
      <text x="252" y="-40.5" fill="currentColor" font-family="xkcd Script" font-size="14">Red gain</text>
      <text x="248.25" y="-12.5" fill="currentColor" font-family="xkcd Script" font-size="14" font-style="italic">GainNode</text>
    </g>
    <g class="edge" transform="translate(4 231.6)">
      <g><path d="M161.61555304354704 -32.134454216903556 C171.8415569961711 -29.841583918025755, 178.06781326061574 -33.21550014414509, 184.86912921331367 -33.512500518897774 M161.86921694387073 -32.66011547711972 C167.29235254102827 -32.20849855896568, 172.5429545987681 -31.25692767715118, 185.78700176958634 -30.89408153447055" stroke="currentColor" stroke-width="1" fill="none"/></g>
      <g><path d="M186.22335816108773 -35.54544048793814 C186.22335816108773 -35.54544048793814, 186.22335816108773 -35.54544048793814, 186.22335816108773 -35.54544048793814 M186.22335816108773 -35.54544048793814 C186.22335816108773 -35.54544048793814, 186.22335816108773 -35.54544048793814, 186.22335816108773 -35.54544048793814 M185.89957328150086 -28.912574898785675 C186.33957186489138 -30.4262676279791, 187.47076976925985 -31.402089934824566, 190.29891424404767 -33.2149086951026 M185.915451183263 -29.323135371633278 C187.16561695836825 -30.32600878322794, 187.70039742040183 -31.72248662219489, 189.7023572667166 -33.48380614105699 M192.37696467172077 -30.534638711987302 C193.03545424950678 -30.851323048430064, 193.54109394369934 -31.6863753598157, 194.1755727530775 -32.685439612673555 M192.4074421438417 -30.378092721296284 C192.5521958697947 -30.725303521140038, 193.21956724744985 -31.173431621441807, 194.08275717504833 -32.57281678892901" stroke="currentColor" stroke-width="0.5" fill="none"/><path d="M186.39263426410523 -35.675196731336634 C189.35075030857914 -34.467512835947595, 193.07094276720386 -33.27061311772429, 196.25280341656827 -32.12555040259198 M185.91462432704574 -35.640545990686576 C189.99126782923258 -33.69648421138771, 192.6664920502357 -32.70966687340731, 196.40580953538276 -31.553735010238924 M196.9801902013976 -32.541149796183994 C191.41162303284153 -31.440601662160287, 188.6744004198078 -29.306953172001236, 185.0425143755672 -27.802282151049564 M195.992873109383 -31.873943667973204 C193.38387251226774 -30.626326527402863, 189.85417316569243 -29.845072001134437, 185.6488808350647 -28.02330334382362 M186.5672861805321 -28.837020037695876 C186.6260273475688 -29.978782406269197, 185.36549257427583 -31.986252027501752, 186.63803118993548 -34.9640391352304 M186.03810690098112 -28.131923659527192 C185.7420026777518 -30.41279357152851, 186.04003165753963 -33.13700152217549, 186.25673801049305 -35.49881238594132" stroke="currentColor" stroke-width="1" fill="none"/></g>
    </g>
    <g class="edge" transform="translate(4 231.6)">
      <g><path d="M357.18 -64.09 C365.5825423668971 -68.11800790240429, 378.07012211194547 -73.07225646056197, 387.1324221417733 -77.90082616448296 M356.1257377437089 -62.39675953505845 C369.57706764216243 -68.28110109428975, 377.410394296553 -71.05256048389765, 386.8259989139188 -77.82860104996287" stroke="currentColor" stroke-width="1" fill="none"/></g>
      <g><path d="M386.6121017085873 -79.97730721699367 C386.6121017085873 -79.97730721699367, 386.6121017085873 -79.97730721699367, 386.6121017085873 -79.97730721699367 M386.6121017085873 -79.97730721699367 C386.6121017085873 -79.97730721699367, 386.6121017085873 -79.97730721699367, 386.6121017085873 -79.97730721699367 M388.31944238254925 -76.1479367815927 C390.07249194796896 -77.49475750026893, 391.21226112694336 -78.14681113678552, 391.9968521623731 -79.89864712051465 M388.5508132456371 -75.73914937712688 C389.18398502065685 -77.29480626074427, 390.6296624825957 -78.22146921662394, 392.03177590488565 -80.3608538465566" stroke="currentColor" stroke-width="0.5" fill="none"/><path d="M386.8030321533057 -80.7035236785182 C389.76066847601294 -80.99522696262648, 393.2246866992917 -80.27643467205446, 397.77695665964904 -80.99544078445994 M386.5681201056738 -80.54798850867115 C390.89961584352955 -80.07377328406895, 395.1690547699724 -80.21247850627884, 396.99134689021287 -81.20104904078244 M397.57894185810915 -80.51161725753198 C395.0456062274542 -78.21394013789151, 394.5383369845748 -78.07597772938394, 390.49428742557205 -73.03032328722288 M396.97468967051714 -80.79200265831953 C395.165406389751 -79.0669080574425, 393.8463123695726 -77.59323286304968, 389.37049521811326 -74.09251743099802 M388.9984705788499 -73.74682983318226 C389.26488038977476 -76.29227121430816, 388.17087108711644 -78.14151370407363, 386.3962106470256 -80.37771867082465 M389.5974956824276 -74.083692141561 C388.680821463807 -75.67844945813009, 388.11697721974963 -77.90321337620092, 386.6549253951702 -80.45436237816246" stroke="currentColor" stroke-width="1" fill="none"/></g>
    </g>
  </g>
</svg>